<svg width="300" height="300" viewBox="0 0 300 300" fill="none" xmlns="http://www.w3.org/2000/svg">
<rect x="94" y="94" width="112" height="112" rx="51" fill="url(#paint0_radial)" stroke="#00FFFF" stroke-width="2"/>
<path fill-rule="evenodd" clip-rule="evenodd" d="M146.882 166.18H149.529H152.176L154.824 190.438H163.941V156.523H149.529H135.118V190.438H144.235L146.882 166.18Z" fill="#836C5F"/>
<path d="M146.882 166.18V165.68H146.434L146.385 166.125L146.882 166.18ZM152.176 166.18L152.674 166.125L152.625 165.68H152.176V166.18ZM154.824 190.438L154.327 190.492L154.375 190.938H154.824V190.438ZM163.941 190.438V190.938H164.441V190.438H163.941ZM163.941 156.523H164.441V156.023H163.941V156.523ZM135.118 156.523V156.023H134.618V156.523H135.118ZM135.118 190.438H134.618V190.938H135.118V190.438ZM144.235 190.438V190.938H144.684L144.732 190.492L144.235 190.438ZM149.529 165.68H146.882V166.68H149.529V165.68ZM149.529 166.68H152.176V165.68H149.529V166.68ZM151.679 166.234L154.327 190.492L155.321 190.384L152.674 166.125L151.679 166.234ZM154.824 190.938H163.941V189.938H154.824V190.938ZM164.441 190.438V156.523H163.441V190.438H164.441ZM163.941 156.023H149.529V157.023H163.941V156.023ZM135.118 157.023H149.529V156.023H135.118V157.023ZM135.618 190.438V156.523H134.618V190.438H135.618ZM144.235 189.938H135.118V190.938H144.235V189.938ZM146.385 166.125L143.738 190.384L144.732 190.492L147.379 166.234L146.385 166.125Z" fill="black"/>
<path d="M155 197.368V190H163L162.733 197.368L161.133 200H156.333L155 197.368Z" fill="#503630" stroke="black"/>
<path d="M144 197.368V190H136L136.267 197.368L137.867 200H142.667L144 197.368Z" fill="#503630" stroke="black"/>
<path fill-rule="evenodd" clip-rule="evenodd" d="M135.118 121.917L127.471 123.045L122.765 130.568V135.082H135.118V156.523H163.941V135.082H176.294V130.568L171.588 123.045L163.941 121.917H135.118Z" fill="#B59F92"/>
<path d="M127.471 123.045L127.398 122.551L127.169 122.584L127.047 122.78L127.471 123.045ZM135.118 121.917V121.417H135.081L135.045 121.422L135.118 121.917ZM122.765 130.568L122.341 130.303L122.265 130.425V130.568H122.765ZM122.765 135.082H122.265V135.582H122.765V135.082ZM135.118 135.082H135.618V134.582H135.118V135.082ZM135.118 156.523H134.618V157.023H135.118V156.523ZM163.941 156.523V157.023H164.441V156.523H163.941ZM163.941 135.082V134.582H163.441V135.082H163.941ZM176.294 135.082V135.582H176.794V135.082H176.294ZM176.294 130.568H176.794V130.425L176.718 130.303L176.294 130.568ZM171.588 123.045L172.012 122.78L171.89 122.584L171.661 122.551L171.588 123.045ZM163.941 121.917L164.014 121.422L163.978 121.417H163.941V121.917ZM127.544 123.54L135.191 122.411L135.045 121.422L127.398 122.551L127.544 123.54ZM123.189 130.833L127.894 123.31L127.047 122.78L122.341 130.303L123.189 130.833ZM123.265 135.082V130.568H122.265V135.082H123.265ZM135.118 134.582H122.765V135.582H135.118V134.582ZM134.618 135.082V156.523H135.618V135.082H134.618ZM135.118 157.023H163.941V156.023H135.118V157.023ZM164.441 156.523V135.082H163.441V156.523H164.441ZM163.941 135.582H176.294V134.582H163.941V135.582ZM176.794 135.082V130.568H175.794V135.082H176.794ZM176.718 130.303L172.012 122.78L171.164 123.31L175.87 130.833L176.718 130.303ZM171.661 122.551L164.014 121.422L163.868 122.411L171.515 123.54L171.661 122.551ZM163.941 121.417H135.118V122.417H163.941V121.417Z" fill="black"/>
<mask id="path-8-outside-1" maskUnits="userSpaceOnUse" x="100" y="147.218" width="100" height="20" fill="black">
<rect fill="white" x="100" y="147.218" width="100" height="20"/>
<path fill-rule="evenodd" clip-rule="evenodd" d="M101 150.294L113.941 150.294V155.831L101 155.831L101 157.908L113.941 157.908V166.213H115.706V157.908L198.647 157.908V155.831L115.706 155.831V148.218H113.941H101V150.294ZM113.941 164.137V166.213L101 166.213L101 164.137L113.941 164.137Z"/>
</mask>
<path fill-rule="evenodd" clip-rule="evenodd" d="M101 150.294L113.941 150.294V155.831L101 155.831L101 157.908L113.941 157.908V166.213H115.706V157.908L198.647 157.908V155.831L115.706 155.831V148.218H113.941H101V150.294ZM113.941 164.137V166.213L101 166.213L101 164.137L113.941 164.137Z" fill="#CEBAA2"/>
<path d="M113.941 150.294H114.941V149.294L113.941 149.294L113.941 150.294ZM101 150.294H100V151.294L101 151.294L101 150.294ZM113.941 155.831L113.941 156.831L114.941 156.831V155.831H113.941ZM101 155.831L101 154.831L100 154.831L100 155.831L101 155.831ZM101 157.908L100 157.908L100 158.908L101 158.908L101 157.908ZM113.941 157.908H114.941V156.908L113.941 156.908L113.941 157.908ZM113.941 166.213H112.941V167.213H113.941V166.213ZM115.706 166.213V167.213H116.706V166.213H115.706ZM115.706 157.908L115.706 156.908L114.706 156.908V157.908H115.706ZM198.647 157.908L198.647 158.908L199.647 158.908V157.908H198.647ZM198.647 155.831H199.647V154.831L198.647 154.831L198.647 155.831ZM115.706 155.831H114.706V156.831L115.706 156.831L115.706 155.831ZM115.706 148.218H116.706V147.218H115.706V148.218ZM101 148.218V147.218H100V148.218H101ZM113.941 166.213L113.941 167.213L114.941 167.213V166.213H113.941ZM113.941 164.137H114.941V163.137L113.941 163.137L113.941 164.137ZM101 166.213L100 166.213L100 167.213L101 167.213L101 166.213ZM101 164.137L101 163.137L100 163.137L100 164.137L101 164.137ZM113.941 149.294L101 149.294L101 151.294L113.941 151.294L113.941 149.294ZM114.941 155.831V150.294H112.941V155.831H114.941ZM101 156.831L113.941 156.831L113.941 154.831L101 154.831L101 156.831ZM102 157.908L102 155.831L100 155.831L100 157.908L102 157.908ZM113.941 156.908L101 156.908L101 158.908L113.941 158.908L113.941 156.908ZM114.941 166.213V157.908H112.941V166.213H114.941ZM115.706 165.213H113.941V167.213H115.706V165.213ZM114.706 157.908V166.213H116.706V157.908H114.706ZM198.647 156.908L115.706 156.908L115.706 158.908L198.647 158.908L198.647 156.908ZM197.647 155.831V157.908H199.647V155.831H197.647ZM115.706 156.831L198.647 156.831L198.647 154.831L115.706 154.831L115.706 156.831ZM114.706 148.218V155.831H116.706V148.218H114.706ZM113.941 149.218H115.706V147.218H113.941V149.218ZM101 149.218H113.941V147.218H101V149.218ZM102 150.294V148.218H100V150.294H102ZM114.941 166.213V164.137H112.941V166.213H114.941ZM101 167.213L113.941 167.213L113.941 165.213L101 165.213L101 167.213ZM100 164.137L100 166.213L102 166.213L102 164.137L100 164.137ZM113.941 163.137L101 163.137L101 165.137L113.941 165.137L113.941 163.137Z" fill="black" mask="url(#path-8-outside-1)"/>
<rect x="146.206" y="118.956" width="8.41177" height="3.15279" fill="#FFE7C3" stroke="black"/>
<path fill-rule="evenodd" clip-rule="evenodd" d="M164.529 135.413L169.529 147.526L168.968 154.794L168.941 154.793L168.059 155.485V158.946L169.235 159.984H173.647L174.824 158.6L175.118 155.139L175.118 155.139L178.941 146.141L176.294 135.413H164.529Z" fill="#FFE7C3"/>
<path d="M169.529 147.526L170.028 147.564L170.037 147.445L169.992 147.335L169.529 147.526ZM164.529 135.413V134.913H163.782L164.067 135.604L164.529 135.413ZM168.968 154.794L168.94 155.294L169.429 155.321L169.466 154.833L168.968 154.794ZM168.941 154.793L168.969 154.294L168.781 154.283L168.633 154.4L168.941 154.793ZM168.059 155.485L167.75 155.092L167.559 155.242V155.485H168.059ZM168.059 158.946H167.559V159.171L167.728 159.321L168.059 158.946ZM169.235 159.984L168.904 160.359L169.046 160.484H169.235V159.984ZM173.647 159.984V160.484H173.878L174.028 160.308L173.647 159.984ZM174.824 158.6L175.205 158.923L175.308 158.801L175.322 158.642L174.824 158.6ZM175.118 155.139L174.68 154.898L174.628 154.991L174.619 155.097L175.118 155.139ZM175.118 155.139L175.556 155.38L175.568 155.358L175.578 155.335L175.118 155.139ZM178.941 146.141L179.401 146.337L179.467 146.183L179.427 146.022L178.941 146.141ZM176.294 135.413L176.78 135.293L176.686 134.913H176.294V135.413ZM169.992 147.335L164.992 135.222L164.067 135.604L169.067 147.716L169.992 147.335ZM169.466 154.833L170.028 147.564L169.031 147.487L168.469 154.756L169.466 154.833ZM168.913 155.292L168.94 155.294L168.996 154.295L168.969 154.294L168.913 155.292ZM168.367 155.878L169.25 155.186L168.633 154.4L167.75 155.092L168.367 155.878ZM168.559 158.946V155.485H167.559V158.946H168.559ZM169.566 159.609L168.39 158.571L167.728 159.321L168.904 160.359L169.566 159.609ZM173.647 159.484H169.235V160.484H173.647V159.484ZM174.443 158.276L173.266 159.66L174.028 160.308L175.205 158.923L174.443 158.276ZM174.619 155.097L174.325 158.557L175.322 158.642L175.616 155.181L174.619 155.097ZM174.68 154.898L174.68 154.898L175.556 155.38L175.556 155.38L174.68 154.898ZM178.481 145.946L174.657 154.943L175.578 155.335L179.401 146.337L178.481 145.946ZM175.809 135.533L178.456 146.261L179.427 146.022L176.78 135.293L175.809 135.533ZM164.529 135.913H176.294V134.913H164.529V135.913Z" fill="black"/>
<path fill-rule="evenodd" clip-rule="evenodd" d="M134.529 135.413L129.824 147.526L130.385 154.794L130.412 154.793L131.294 155.485V158.946L130.118 159.984H125.706L124.529 158.6L124.235 155.139L120.412 146.141L122.765 135.413H134.529Z" fill="#FFE7C3"/>
<path d="M129.824 147.526L129.325 147.564L129.316 147.451L129.357 147.344L129.824 147.526ZM134.529 135.413V134.913H135.26L134.995 135.594L134.529 135.413ZM130.385 154.794L130.413 155.294L129.924 155.321L129.887 154.833L130.385 154.794ZM130.412 154.793L130.384 154.294L130.572 154.283L130.72 154.4L130.412 154.793ZM131.294 155.485L131.603 155.092L131.794 155.242V155.485H131.294ZM131.294 158.946H131.794V159.171L131.625 159.321L131.294 158.946ZM130.118 159.984L130.448 160.359L130.307 160.484H130.118V159.984ZM125.706 159.984V160.484H125.475L125.325 160.308L125.706 159.984ZM124.529 158.6L124.148 158.923L124.045 158.801L124.031 158.642L124.529 158.6ZM124.235 155.139L124.695 154.943L124.727 155.017L124.733 155.097L124.235 155.139ZM120.412 146.141L119.952 146.337L119.889 146.19L119.923 146.034L120.412 146.141ZM122.765 135.413L122.276 135.306L122.362 134.913H122.765V135.413ZM129.357 147.344L134.063 135.232L134.995 135.594L130.29 147.707L129.357 147.344ZM129.887 154.833L129.325 147.564L130.322 147.487L130.884 154.756L129.887 154.833ZM130.44 155.292L130.413 155.294L130.357 154.295L130.384 154.294L130.44 155.292ZM130.985 155.878L130.103 155.186L130.72 154.4L131.603 155.092L130.985 155.878ZM130.794 158.946V155.485H131.794V158.946H130.794ZM129.787 159.609L130.963 158.571L131.625 159.321L130.448 160.359L129.787 159.609ZM125.706 159.484H130.118V160.484H125.706V159.484ZM124.91 158.276L126.087 159.66L125.325 160.308L124.148 158.923L124.91 158.276ZM124.733 155.097L125.028 158.557L124.031 158.642L123.737 155.181L124.733 155.097ZM120.872 145.946L124.695 154.943L123.775 155.335L119.952 146.337L120.872 145.946ZM123.253 135.52L120.9 146.248L119.923 146.034L122.276 135.306L123.253 135.52ZM134.529 135.913H122.765V134.913H134.529V135.913Z" fill="black"/>
<path fill-rule="evenodd" clip-rule="evenodd" d="M150.118 120.186L143.647 119.494L140.412 110.15L141.294 101.153L150.118 98.0381L158.941 101.153L159.824 110.15L156.588 119.494L150.118 120.186Z" fill="#FFE7C3"/>
<path d="M143.647 119.494L143.175 119.658L143.278 119.958L143.594 119.991L143.647 119.494ZM150.118 120.186L150.064 120.684L150.118 120.689L150.171 120.684L150.118 120.186ZM140.412 110.15L139.914 110.102L139.903 110.211L139.939 110.314L140.412 110.15ZM141.294 101.153L141.128 100.681L140.828 100.787L140.796 101.104L141.294 101.153ZM150.118 98.0381L150.284 97.5667L150.118 97.5079L149.951 97.5667L150.118 98.0381ZM158.941 101.153L159.439 101.104L159.408 100.787L159.108 100.681L158.941 101.153ZM159.824 110.15L160.296 110.314L160.332 110.211L160.321 110.102L159.824 110.15ZM156.588 119.494L156.641 119.991L156.957 119.958L157.061 119.658L156.588 119.494ZM143.594 119.991L150.064 120.684L150.171 119.689L143.7 118.997L143.594 119.991ZM139.939 110.314L143.175 119.658L144.12 119.331L140.884 109.987L139.939 110.314ZM140.796 101.104L139.914 110.102L140.909 110.199L141.792 101.202L140.796 101.104ZM149.951 97.5667L141.128 100.681L141.461 101.624L150.284 98.5096L149.951 97.5667ZM149.951 98.5096L158.775 101.624L159.108 100.681L150.284 97.5667L149.951 98.5096ZM158.444 101.202L159.326 110.199L160.321 110.102L159.439 101.104L158.444 101.202ZM159.351 109.987L156.116 119.331L157.061 119.658L160.296 110.314L159.351 109.987ZM156.535 118.997L150.064 119.689L150.171 120.684L156.641 119.991L156.535 118.997Z" fill="black"/>
<path fill-rule="evenodd" clip-rule="evenodd" d="M150.118 97.0407L140.412 98.3843L137.765 100.461L136.294 104.267V116.38H141.294L141.882 107.382L143.353 105.998H150.118H150.412H157.176L158.647 107.382L159.235 116.38H164.235V104.267L162.765 100.461L160.118 98.3843L150.412 97.0407V97L150.265 97.0204L150.118 97V97.0407Z" fill="#FFFBA0"/>
<path d="M140.412 98.3843L140.343 97.889L140.209 97.9075L140.103 97.9909L140.412 98.3843ZM150.118 97.0407L150.186 97.536L150.618 97.4763V97.0407H150.118ZM137.765 100.461L137.456 100.067L137.348 100.152L137.298 100.28L137.765 100.461ZM136.294 104.267L135.828 104.087L135.794 104.174V104.267H136.294ZM136.294 116.38H135.794V116.88H136.294V116.38ZM141.294 116.38V116.88H141.762L141.793 116.412L141.294 116.38ZM141.882 107.382L141.54 107.018L141.396 107.153L141.383 107.349L141.882 107.382ZM143.353 105.998V105.498H143.155L143.01 105.634L143.353 105.998ZM157.176 105.998L157.519 105.634L157.375 105.498H157.176V105.998ZM158.647 107.382L159.146 107.349L159.133 107.153L158.99 107.018L158.647 107.382ZM159.235 116.38L158.736 116.412L158.767 116.88H159.235V116.38ZM164.235 116.38V116.88H164.735V116.38H164.235ZM164.235 104.267H164.735V104.174L164.702 104.087L164.235 104.267ZM162.765 100.461L163.231 100.28L163.181 100.152L163.073 100.067L162.765 100.461ZM160.118 98.3843L160.426 97.9909L160.32 97.9075L160.186 97.889L160.118 98.3843ZM150.412 97.0407H149.912V97.4763L150.343 97.536L150.412 97.0407ZM150.412 97H150.912V96.426L150.343 96.5047L150.412 97ZM150.265 97.0204L150.196 97.5156L150.265 97.5251L150.333 97.5156L150.265 97.0204ZM150.118 97L150.186 96.5047L149.618 96.426V97H150.118ZM140.48 98.8795L150.186 97.536L150.049 96.5454L140.343 97.889L140.48 98.8795ZM138.073 100.854L140.72 98.7777L140.103 97.9909L137.456 100.067L138.073 100.854ZM136.76 104.448L138.231 100.641L137.298 100.28L135.828 104.087L136.76 104.448ZM136.794 116.38V104.267H135.794V116.38H136.794ZM141.294 115.88H136.294V116.88H141.294V115.88ZM141.383 107.349L140.795 116.347L141.793 116.412L142.381 107.415L141.383 107.349ZM143.01 105.634L141.54 107.018L142.225 107.746L143.696 106.362L143.01 105.634ZM150.118 105.498H143.353V106.498H150.118V105.498ZM150.118 106.498H150.412V105.498H150.118V106.498ZM150.412 106.498H157.176V105.498H150.412V106.498ZM156.834 106.362L158.304 107.746L158.99 107.018L157.519 105.634L156.834 106.362ZM158.148 107.415L158.736 116.412L159.734 116.347L159.146 107.349L158.148 107.415ZM159.235 116.88H164.235V115.88H159.235V116.88ZM164.735 116.38V104.267H163.735V116.38H164.735ZM164.702 104.087L163.231 100.28L162.298 100.641L163.769 104.448L164.702 104.087ZM163.073 100.067L160.426 97.9909L159.809 98.7777L162.456 100.854L163.073 100.067ZM160.186 97.889L150.48 96.5454L150.343 97.536L160.049 98.8795L160.186 97.889ZM149.912 97V97.0407H150.912V97H149.912ZM150.333 97.5156L150.48 97.4953L150.343 96.5047L150.196 96.5251L150.333 97.5156ZM150.333 96.5251L150.186 96.5047L150.049 97.4953L150.196 97.5156L150.333 96.5251ZM149.618 97V97.0407H150.618V97H149.618Z" fill="black"/>
<path d="M152.177 109.458H156.588" stroke="black"/>
<path d="M144.529 109.458H148.941" stroke="black"/>
<path d="M148.059 116.38H152.471" stroke="black"/>
<defs>
<radialGradient id="paint0_radial" cx="0" cy="0" r="1" gradientUnits="userSpaceOnUse" gradientTransform="translate(163.75 170.35) rotate(-131.255) scale(82.2708)">
<stop stop-color="#009AF0"/>
<stop offset="0.9999" stop-color="#92EAFF"/>
<stop offset="1" stop-color="#60FFF5"/>
</radialGradient>
</defs>
</svg>
