<svg width="300" height="300" viewBox="0 0 300 300" fill="none" xmlns="http://www.w3.org/2000/svg">
<path d="M119.686 108.576H185.38L198.153 194.917H106.912L119.686 108.576Z" fill="#CFCEC7" stroke="black"/>
<path fill-rule="evenodd" clip-rule="evenodd" d="M168.044 177.649H190.854V179.376H168.044V188.873H166.219V179.376V177.649H168.044Z" fill="#E0E0E0"/>
<path fill-rule="evenodd" clip-rule="evenodd" d="M158.007 163.834H180.818V165.561H158.007V175.058H156.182V165.561V163.834H158.007Z" fill="#E0E0E0"/>
<path fill-rule="evenodd" clip-rule="evenodd" d="M154.358 146.566H177.168V148.293H154.358V157.79H152.533V148.293V146.566H154.358Z" fill="#E0E0E0"/>
<path fill-rule="evenodd" clip-rule="evenodd" d="M126.073 135.341H148.883V137.068H126.073V146.566H124.248V137.068V135.341H126.073Z" fill="#E0E0E0"/>
<path fill-rule="evenodd" clip-rule="evenodd" d="M156.182 119.8H178.993V121.527H156.182V131.024H154.358V121.527V119.8H156.182Z" fill="#E0E0E0"/>
<path fill-rule="evenodd" clip-rule="evenodd" d="M125.161 163.834H147.971V165.561H125.161V175.058H123.336V165.561V163.834H125.161Z" fill="#E0E0E0"/>
<path fill-rule="evenodd" clip-rule="evenodd" d="M141.584 177.649H164.394V179.376H141.584V188.873H139.759V179.376V177.649H141.584Z" fill="#E0E0E0"/>
<path fill-rule="evenodd" clip-rule="evenodd" d="M164.394 190.6H141.584V188.873H164.394V179.376H166.219V188.873V190.6H164.394Z" fill="#B9B8B4"/>
<path fill-rule="evenodd" clip-rule="evenodd" d="M190.854 190.6H168.044V188.873H190.854V179.376H192.679V188.873V190.6H190.854Z" fill="#B9B8B4"/>
<path fill-rule="evenodd" clip-rule="evenodd" d="M137.934 190.6H115.124V188.873H137.934V179.376H139.759V188.873V190.6H137.934Z" fill="#B9B8B4"/>
<path fill-rule="evenodd" clip-rule="evenodd" d="M147.971 176.785H125.161V175.059H147.971V165.561H149.796V175.059V176.785H147.971Z" fill="#B9B8B4"/>
<path fill-rule="evenodd" clip-rule="evenodd" d="M180.818 176.785H158.007V175.059H180.818V165.561H182.642V175.059V176.785H180.818Z" fill="#B9B8B4"/>
<path fill-rule="evenodd" clip-rule="evenodd" d="M177.168 159.517H154.358V157.79H177.168V148.293H178.993V157.79V159.517H177.168Z" fill="#B9B8B4"/>
<path fill-rule="evenodd" clip-rule="evenodd" d="M148.883 148.293H126.073V146.566H148.883V137.068H150.708V146.566V148.293H148.883Z" fill="#B9B8B4"/>
<path fill-rule="evenodd" clip-rule="evenodd" d="M178.993 132.751H156.182V131.024H178.993V121.527H180.818V131.024V132.751H178.993Z" fill="#B9B8B4"/>
<path fill-rule="evenodd" clip-rule="evenodd" d="M115.124 177.649H137.934V179.376H115.124V188.873H113.299L113.299 179.376V177.649H115.124Z" fill="#E0E0E0"/>
<path fill-rule="evenodd" clip-rule="evenodd" d="M125.161 64.1444H106.912V75.0056L119.686 85.2634H185.38L198.153 75.0056L198.153 64.1444H179.905V75.0056H161.657V64.1444H143.409V75.0056H125.161V64.1444Z" fill="#B9B8B4"/>
<path d="M106.912 64.1444V63.6444H106.412V64.1444H106.912ZM125.161 64.1444H125.661V63.6444H125.161V64.1444ZM106.912 75.0056H106.412V75.2454L106.599 75.3955L106.912 75.0056ZM119.686 85.2634L119.373 85.6533L119.51 85.7634H119.686V85.2634ZM185.38 85.2634V85.7634H185.555L185.693 85.6533L185.38 85.2634ZM198.153 75.0056L198.466 75.3955L198.653 75.2454L198.653 75.0056L198.153 75.0056ZM198.153 64.1444L198.653 64.1444L198.653 63.6444H198.153V64.1444ZM179.905 64.1444V63.6444H179.405V64.1444H179.905ZM179.905 75.0056V75.5056H180.405V75.0056H179.905ZM161.657 75.0056H161.157V75.5056H161.657V75.0056ZM161.657 64.1444H162.157V63.6444H161.657V64.1444ZM143.409 64.1444V63.6444H142.909V64.1444H143.409ZM143.409 75.0056V75.5056H143.909V75.0056H143.409ZM125.161 75.0056H124.661V75.5056H125.161V75.0056ZM106.912 64.6444H125.161V63.6444H106.912V64.6444ZM107.412 75.0056V64.1444H106.412V75.0056H107.412ZM119.999 84.8736L107.225 74.6158L106.599 75.3955L119.373 85.6533L119.999 84.8736ZM185.38 84.7634H119.686V85.7634H185.38V84.7634ZM197.84 74.6158L185.066 84.8736L185.693 85.6533L198.466 75.3955L197.84 74.6158ZM197.653 64.1444L197.653 75.0056L198.653 75.0056L198.653 64.1444L197.653 64.1444ZM179.905 64.6444H198.153V63.6444H179.905V64.6444ZM180.405 75.0056V64.1444H179.405V75.0056H180.405ZM161.657 75.5056H179.905V74.5056H161.657V75.5056ZM161.157 64.1444V75.0056H162.157V64.1444H161.157ZM143.409 64.6444H161.657V63.6444H143.409V64.6444ZM143.909 75.0056V64.1444H142.909V75.0056H143.909ZM125.161 75.5056H143.409V74.5056H125.161V75.5056ZM124.661 64.1444V75.0056H125.661V64.1444H124.661Z" fill="black"/>
<rect x="125" y="81" width="55" height="12" fill="#9F9F9F"/>
<rect x="106.912" y="82.6408" width="18.2482" height="6.04391" fill="#E0E0E0" stroke="black"/>
<rect x="106.912" y="76.597" width="18.2482" height="6.04391" fill="#CFCEC7" stroke="black"/>
<rect x="106.912" y="64.5092" width="18.2482" height="6.0439" fill="#CFCEC7" stroke="black"/>
<rect x="179.905" y="64.5092" width="18.2482" height="6.0439" fill="#CFCEC7" stroke="black"/>
<rect x="179.905" y="76.597" width="18.2482" height="6.04391" fill="#CFCEC7" stroke="black"/>
<rect x="106.912" y="70.553" width="18.2482" height="6.0439" fill="#E0E0E0" stroke="black"/>
<rect x="179.905" y="70.553" width="18.2482" height="6.0439" fill="#E0E0E0" stroke="black"/>
<rect x="106.912" y="58.4652" width="18.2482" height="6.0439" fill="#E0E0E0" stroke="black"/>
<rect x="179.905" y="58.4652" width="18.2482" height="6.0439" fill="#E0E0E0" stroke="black"/>
<rect x="143.409" y="58.4652" width="18.2482" height="6.0439" fill="#E0E0E0" stroke="black"/>
<rect x="143.409" y="83.0749" width="18.2482" height="6.0439" fill="#E0E0E0" stroke="black"/>
<rect x="179.905" y="82.6408" width="18.2482" height="6.04391" fill="#E0E0E0" stroke="black"/>
<rect x="161.657" y="93" width="18.2482" height="6.0439" fill="#E0E0E0" stroke="black"/>
<rect x="161.657" y="68.877" width="18.2482" height="6.0439" fill="#E0E0E0" stroke="black"/>
<rect x="125.161" y="93" width="18.2482" height="6.0439" fill="#E0E0E0" stroke="black"/>
<rect x="125.161" y="68.877" width="18.2482" height="6.0439" fill="#E0E0E0" stroke="black"/>
<path fill-rule="evenodd" clip-rule="evenodd" d="M125.161 88H106.912V99.0258V99.0258L119.686 109.439H185.38L198.153 99.0258L198.153 88H179.905V99.0258H161.657V88H143.409V99.0258H125.161V88Z" fill="#CFCEC7"/>
<path d="M106.912 88V87.5H106.412V88H106.912ZM125.161 88H125.661V87.5H125.161V88ZM106.912 99.0258H106.412V99.2633L106.596 99.4133L106.912 99.0258ZM119.686 109.439L119.37 109.827L119.508 109.939H119.686V109.439ZM185.38 109.439V109.939H185.557L185.695 109.827L185.38 109.439ZM198.153 99.0258L198.469 99.4133L198.653 99.2633L198.653 99.0258L198.153 99.0258ZM198.153 88L198.653 88L198.653 87.5H198.153V88ZM179.905 88V87.5H179.405V88H179.905ZM179.905 99.0258V99.5258H180.405V99.0258H179.905ZM161.657 99.0258H161.157V99.5258H161.657V99.0258ZM161.657 88H162.157V87.5H161.657V88ZM143.409 88V87.5H142.909V88H143.409ZM143.409 99.0258V99.5258H143.909V99.0258H143.409ZM125.161 99.0258H124.661V99.5258H125.161V99.0258ZM106.912 88.5H125.161V87.5H106.912V88.5ZM107.412 99.0258V88H106.412V99.0258H107.412ZM107.412 99.0258V99.0258H106.412V99.0258H107.412ZM120.002 109.051L107.228 98.6382L106.596 99.4133L119.37 109.827L120.002 109.051ZM185.38 108.939H119.686V109.939H185.38V108.939ZM197.837 98.6382L185.064 109.051L185.695 109.827L198.469 99.4133L197.837 98.6382ZM197.653 88L197.653 99.0258L198.653 99.0258L198.653 88L197.653 88ZM179.905 88.5H198.153V87.5H179.905V88.5ZM180.405 99.0258V88H179.405V99.0258H180.405ZM161.657 99.5258H179.905V98.5258H161.657V99.5258ZM161.157 88V99.0258H162.157V88H161.157ZM143.409 88.5H161.657V87.5H143.409V88.5ZM143.909 99.0258V88H142.909V99.0258H143.909ZM125.161 99.5258H143.409V98.5258H125.161V99.5258ZM124.661 88V99.0258H125.661V88H124.661Z" fill="black"/>
<path d="M106.456 164.698V194.917L119.686 109.439L117 107.685L106.456 164.698Z" fill="#E0E0E0" stroke="black"/>
<path d="M198.609 164.698V194.917L185.38 109.439L188 107.685L198.609 164.698Z" fill="#B9B8B4" stroke="black"/>
<path d="M184.923 109.007H120.142L198 99.1658L184.923 109.007Z" fill="#B9B8B4"/>
<path d="M124.704 82.2091H107.369L124.704 77.0286V82.2091Z" fill="#B9B8B4"/>
<path d="M197.697 82.2091H180.361L197.697 77.0286V82.2091Z" fill="#B9B8B4"/>
<path d="M197.697 70.1213H180.361L197.697 64.9409V70.1213Z" fill="#B9B8B4"/>
<path d="M124.704 70.1213H107.369L124.704 64.9409V70.1213Z" fill="#B9B8B4"/>
<path d="M125.617 74.4892V69.3087L142.953 74.4892H125.617Z" fill="#C4C4C4"/>
<path d="M162.113 74.4892V69.3087L179.449 74.4892H162.113Z" fill="#C4C4C4"/>
<path d="M162.113 98.6122V93.4318L179.449 98.6122H162.113Z" fill="#C4C4C4"/>
<path d="M125.617 98.6122V93.4318L142.953 98.6122H125.617Z" fill="#C4C4C4"/>
<path fill-rule="evenodd" clip-rule="evenodd" d="M211.383 188.917L199.066 163.834V195L106 195L118.318 214L211.383 214V188.917Z" fill="black" fill-opacity="0.2"/>
</svg>
