<svg width="300" height="300" viewBox="0 0 300 300" fill="none" xmlns="http://www.w3.org/2000/svg">
<path fill-rule="evenodd" clip-rule="evenodd" d="M187.318 135L175 110V200L184.33 219H184.361L187.318 225V219H203.818V182.5L191.5 157.417V200H187.318V135ZM109 200H124V219H121.318L109 200Z" fill="black" fill-opacity="0.2"/>
<path d="M109.044 199.5L117.459 100.5H182.541L190.956 199.5H109.044Z" fill="#CFCEC7" stroke="black"/>
<path fill-rule="evenodd" clip-rule="evenodd" d="M152.747 144H174.583V145.727H152.747V155.224H151L151 145.727V144H152.747Z" fill="#E0E0E0"/>
<path d="M109 157.537L117.349 101.056L117.482 101.189L109.018 198.775L109 198.793V157.537Z" fill="#E0E0E0" stroke="black"/>
<path d="M191 157.537L182.651 101.056L182.518 101.189L190.982 198.775L191 198.793V157.537Z" fill="#B9B8B4" stroke="black"/>
<rect x="125" y="74" width="50" height="18" fill="#9F9F9F"/>
<rect x="108" y="83" width="17" height="9" fill="#E0E0E0"/>
<path fill-rule="evenodd" clip-rule="evenodd" d="M125 92H108V101L113 110H187L191 101V92H175V101H158V92H141V101H125V92Z" fill="#CFCEC7"/>
<rect x="141" y="83" width="17" height="9" fill="#E0E0E0"/>
<rect x="175" y="83" width="16" height="9" fill="#E0E0E0"/>
<rect x="125" y="92" width="16" height="9" fill="#E0E0E0"/>
<rect x="158" y="92" width="17" height="9" fill="#E0E0E0"/>
<line x1="108.5" y1="83" x2="108.5" y2="101" stroke="black"/>
<line x1="124.5" y1="83" x2="124.5" y2="102" stroke="black"/>
<line x1="141.5" y1="83" x2="141.5" y2="102" stroke="black"/>
<line x1="157.5" y1="83" x2="157.5" y2="102" stroke="black"/>
<line x1="175.5" y1="83" x2="175.5" y2="102" stroke="black"/>
<line x1="190.5" y1="83" x2="190.5" y2="101" stroke="black"/>
<line x1="108" y1="83.5" x2="125" y2="83.5" stroke="black"/>
<line x1="108" y1="91.5" x2="125" y2="91.5" stroke="black"/>
<line x1="124" y1="92.5" x2="141" y2="92.5" stroke="black"/>
<line x1="158" y1="92.5" x2="175" y2="92.5" stroke="black"/>
<line x1="141" y1="83.5" x2="158" y2="83.5" stroke="black"/>
<line x1="141" y1="91.5" x2="158" y2="91.5" stroke="black"/>
<line x1="175" y1="83.5" x2="191" y2="83.5" stroke="black"/>
<line x1="175" y1="91.5" x2="191" y2="91.5" stroke="black"/>
<line x1="124" y1="101.5" x2="141" y2="101.5" stroke="black"/>
<line x1="158" y1="101.5" x2="175" y2="101.5" stroke="black"/>
<path d="M125 101V93L141 101H125Z" fill="#C4C4C4"/>
<path d="M158 101V93L175 101H158Z" fill="#C4C4C4"/>
<path d="M183.5 110.5H187L190.5 101" stroke="black" stroke-linecap="round"/>
<path d="M116.5 110.5H113.5L108.5 101" stroke="black" stroke-linecap="round"/>
<rect x="108" y="47" width="17" height="9" fill="#E0E0E0"/>
<path fill-rule="evenodd" clip-rule="evenodd" d="M125 56H108V65L113 74H187L191 65V56H175V65H158V56H141V65H125V56Z" fill="#CFCEC7"/>
<rect x="141" y="47" width="17" height="9" fill="#E0E0E0"/>
<rect x="175" y="47" width="16" height="9" fill="#E0E0E0"/>
<rect x="125" y="56" width="16" height="9" fill="#E0E0E0"/>
<rect x="158" y="56" width="17" height="9" fill="#E0E0E0"/>
<line x1="108.5" y1="47" x2="108.5" y2="65" stroke="black"/>
<line x1="124.5" y1="47" x2="124.5" y2="66" stroke="black"/>
<line x1="141.5" y1="47" x2="141.5" y2="66" stroke="black"/>
<line x1="157.5" y1="47" x2="157.5" y2="66" stroke="black"/>
<line x1="175.5" y1="47" x2="175.5" y2="66" stroke="black"/>
<line x1="190.5" y1="47" x2="190.5" y2="65" stroke="black"/>
<line x1="108" y1="47.5" x2="125" y2="47.5" stroke="black"/>
<line x1="108" y1="55.5" x2="125" y2="55.5" stroke="black"/>
<line x1="124" y1="56.5" x2="141" y2="56.5" stroke="black"/>
<line x1="158" y1="56.5" x2="175" y2="56.5" stroke="black"/>
<line x1="141" y1="47.5" x2="158" y2="47.5" stroke="black"/>
<line x1="141" y1="55.5" x2="158" y2="55.5" stroke="black"/>
<line x1="175" y1="47.5" x2="191" y2="47.5" stroke="black"/>
<line x1="175" y1="55.5" x2="191" y2="55.5" stroke="black"/>
<line x1="124" y1="65.5" x2="141" y2="65.5" stroke="black"/>
<line x1="158" y1="65.5" x2="175" y2="65.5" stroke="black"/>
<path d="M125 65V57L141 65H125Z" fill="#C4C4C4"/>
<path d="M158 65V57L175 65H158Z" fill="#C4C4C4"/>
<path d="M183.5 74.5H187L190.5 65" stroke="black" stroke-linecap="round"/>
<path d="M116.5 74.5H113.5L108.5 65" stroke="black" stroke-linecap="round"/>
<rect x="108" y="65" width="17" height="9" fill="#E0E0E0"/>
<rect x="108" y="74" width="17" height="9" fill="#CFCEC7"/>
<path d="M124 83H109L124 74V83Z" fill="#B9B8B4"/>
<line x1="108" y1="65.5" x2="125" y2="65.5" stroke="black"/>
<line x1="108" y1="73.5" x2="125" y2="73.5" stroke="black"/>
<line x1="108.5" y1="65" x2="108.5" y2="83" stroke="black"/>
<line x1="124.5" y1="65" x2="124.5" y2="83" stroke="black"/>
<rect x="175" y="65" width="16" height="9" fill="#E0E0E0"/>
<rect x="175" y="74" width="16" height="9" fill="#CFCEC7"/>
<path d="M190.059 83H175.941L190.059 74V83Z" fill="#B9B8B4"/>
<line x1="175" y1="65.5" x2="191" y2="65.5" stroke="black"/>
<line x1="175" y1="73.5" x2="191" y2="73.5" stroke="black"/>
<line x1="175.5" y1="65" x2="175.5" y2="83" stroke="black"/>
<line x1="190.559" y1="65" x2="190.559" y2="83" stroke="black"/>
<rect x="108" y="47" width="17" height="9" fill="#E0E0E0"/>
<rect x="108" y="56" width="17" height="9" fill="#CFCEC7"/>
<path d="M124 65H109L124 56V65Z" fill="#B9B8B4"/>
<line x1="108" y1="47.5" x2="125" y2="47.5" stroke="black"/>
<line x1="108" y1="55.5" x2="125" y2="55.5" stroke="black"/>
<line x1="108.5" y1="47" x2="108.5" y2="65" stroke="black"/>
<line x1="124.5" y1="47" x2="124.5" y2="65" stroke="black"/>
<rect x="175" y="47" width="16" height="9" fill="#E0E0E0"/>
<rect x="175" y="56" width="16" height="9" fill="#CFCEC7"/>
<path d="M190.059 65H175.941L190.059 56V65Z" fill="#B9B8B4"/>
<line x1="175" y1="47.5" x2="191" y2="47.5" stroke="black"/>
<line x1="175" y1="55.5" x2="191" y2="55.5" stroke="black"/>
<line x1="175.5" y1="47" x2="175.5" y2="65" stroke="black"/>
<line x1="190.559" y1="47" x2="190.559" y2="65" stroke="black"/>
<rect x="141" y="120" width="17" height="21" fill="black"/>
<rect x="124" y="120" width="17" height="10" fill="#E0E0E0"/>
<rect x="124" y="130" width="17" height="10" fill="#CFCEC7"/>
<path d="M140 140H125L140 130V140Z" fill="#B9B8B4"/>
<line x1="124" y1="120.5" x2="141" y2="120.5" stroke="black"/>
<line x1="124" y1="129.5" x2="141" y2="129.5" stroke="black"/>
<line x1="124.5" y1="120" x2="124.5" y2="140" stroke="black"/>
<line x1="140.5" y1="120" x2="140.5" y2="140" stroke="black"/>
<rect x="124" y="140" width="17" height="10" fill="#E0E0E0"/>
<rect x="124" y="150" width="17" height="10" fill="#CFCEC7"/>
<path d="M140 160H125L140 150V160Z" fill="#B9B8B4"/>
<line x1="124" y1="140.611" x2="141" y2="140.611" stroke="black"/>
<line x1="124" y1="149.5" x2="141" y2="149.5" stroke="black"/>
<line x1="124.5" y1="140" x2="124.5" y2="160" stroke="black"/>
<line x1="140.5" y1="140" x2="140.5" y2="160" stroke="black"/>
<rect x="124" y="160" width="17" height="10" fill="#E0E0E0"/>
<rect x="124" y="170" width="17" height="10" fill="#CFCEC7"/>
<path d="M140 180H125L140 170V180Z" fill="#B9B8B4"/>
<line x1="124" y1="160.611" x2="141" y2="160.611" stroke="black"/>
<line x1="124" y1="169.5" x2="141" y2="169.5" stroke="black"/>
<line x1="124.5" y1="160" x2="124.5" y2="180" stroke="black"/>
<line x1="140.5" y1="160" x2="140.5" y2="180" stroke="black"/>
<rect x="124" y="180" width="17" height="10" fill="#E0E0E0"/>
<rect x="124" y="190" width="17" height="10" fill="#CFCEC7"/>
<path d="M140 200H125L140 190V200Z" fill="#B9B8B4"/>
<line x1="124" y1="180.611" x2="141" y2="180.611" stroke="black"/>
<line x1="124" y1="189.5" x2="141" y2="189.5" stroke="black"/>
<line x1="124.5" y1="180" x2="124.5" y2="200" stroke="black"/>
<line x1="140.5" y1="180" x2="140.5" y2="200" stroke="black"/>
<rect x="158" y="120" width="17" height="10" fill="#E0E0E0"/>
<rect x="158" y="130" width="17" height="10" fill="#CFCEC7"/>
<path d="M174 140H159L174 130V140Z" fill="#B9B8B4"/>
<line x1="158" y1="120.5" x2="175" y2="120.5" stroke="black"/>
<line x1="158" y1="129.5" x2="175" y2="129.5" stroke="black"/>
<line x1="158.5" y1="120" x2="158.5" y2="140" stroke="black"/>
<line x1="174.5" y1="120" x2="174.5" y2="140" stroke="black"/>
<rect x="158" y="140" width="17" height="10" fill="#E0E0E0"/>
<rect x="158" y="150" width="17" height="10" fill="#CFCEC7"/>
<path d="M174 160H159L174 150V160Z" fill="#B9B8B4"/>
<line x1="158" y1="140.611" x2="175" y2="140.611" stroke="black"/>
<line x1="158" y1="149.5" x2="175" y2="149.5" stroke="black"/>
<line x1="158.5" y1="140" x2="158.5" y2="160" stroke="black"/>
<line x1="174.5" y1="140" x2="174.5" y2="160" stroke="black"/>
<rect x="158" y="160" width="17" height="10" fill="#E0E0E0"/>
<rect x="158" y="170" width="17" height="10" fill="#CFCEC7"/>
<path d="M174 180H159L174 170V180Z" fill="#B9B8B4"/>
<line x1="158" y1="160.611" x2="175" y2="160.611" stroke="black"/>
<line x1="158" y1="169.5" x2="175" y2="169.5" stroke="black"/>
<line x1="158.5" y1="160" x2="158.5" y2="180" stroke="black"/>
<line x1="174.5" y1="160" x2="174.5" y2="180" stroke="black"/>
<rect x="158" y="180" width="17" height="10" fill="#E0E0E0"/>
<rect x="158" y="190" width="17" height="10" fill="#CFCEC7"/>
<path d="M174 200H159L174 190V200Z" fill="#B9B8B4"/>
<line x1="158" y1="180.611" x2="175" y2="180.611" stroke="black"/>
<line x1="158" y1="189.5" x2="175" y2="189.5" stroke="black"/>
<line x1="158.5" y1="180" x2="158.5" y2="200" stroke="black"/>
<line x1="174.5" y1="180" x2="174.5" y2="200" stroke="black"/>
<rect x="141" y="141" width="17" height="59" fill="#9F9F9F"/>
</svg>
