<svg width="300" height="300" viewBox="0 0 300 300" fill="none" xmlns="http://www.w3.org/2000/svg">
<path d="M170.941 77.6271L165.92 74.041L167.713 83.3648L170.223 91.6127L172.734 99.8607L175.961 107.391L179.547 115.639L182.057 110.26L176.32 107.391L179.547 102.73L173.451 99.8607L176.32 95.1988L170.941 91.6127L174.168 86.9508L168.789 83.3648L170.941 77.6271Z" fill="#554D5B" stroke="black"/>
<path d="M174.885 195.25L170.223 192.381L169.865 192.023L159.107 204.932L156.238 201.705L150.5 212.463V220.352L156.596 207.443L161.617 211.029L174.885 195.25Z" fill="#011408"/>
<path d="M150.5 64V182.699V212.463L156.238 201.346L159.107 204.574L171.658 189.871L186.719 187.719L199.629 170.148L203.215 153.652L195.684 128.549L181.699 121.018L173.451 100.578L164.486 69.7377L150.5 64Z" fill="#3F413F"/>
<path d="M150.5 64L164.486 69.7377L173.092 99.5021L181.699 121.018L195.684 128.549L198.195 136.797L202.857 155.086L198.912 173.375L190.664 182.34L186.719 187.719L169.865 192.023L159.107 204.574L156.238 201.346L150.5 212.463" stroke="black"/>
<path d="M200.346 162.975H183.133L188.871 181.982H196.76L214.691 192.74L238 236.49L220.428 185.926L200.346 162.975Z" fill="#554D5B" stroke="black"/>
<path d="M182.416 182.34L169.865 179.83V191.664L190.664 204.932L196.76 223.58V204.932L182.416 182.34Z" fill="#554D5B" stroke="black"/>
<path d="M197.477 154.727L187.795 142.893L194.609 137.156H199.629L223.656 159.031L237.283 186.285L223.656 168.355L206.084 154.727H197.477Z" fill="#554D5B" stroke="black"/>
<path d="M183.133 139.307V133.57L179.547 129.625L165.561 128.191L161.258 131.059L183.133 139.307Z" fill="#61FF00" stroke="black"/>
<path d="M165.92 81.5717L163.41 76.1926L162.334 81.5717L163.41 89.4611L165.92 81.5717Z" fill="black" stroke="black"/>
<path d="M158.389 86.2336V76.1926L156.955 71.1721L155.879 86.2336L158.031 100.578L165.203 107.75L170.941 123.529L191.381 131.777L187.795 128.908L173.451 121.377L168.789 104.164L161.617 96.9918L158.389 86.2336Z" fill="black"/>
<path d="M154.803 143.611L153.727 112.771L155.879 116.357L157.672 140.742L170.223 149.348L172.016 161.182L179.906 170.865V174.092L170.223 162.975L166.637 151.141L154.803 143.611Z" fill="black"/>
<path d="M156.955 159.748L150.5 151.5V145.762L159.465 159.031L160.541 177.32L164.844 185.568V189.154L158.748 178.754L156.955 159.748Z" fill="black"/>
<path d="M182.416 143.969L161.258 133.928L163.051 136.439L179.547 145.404L182.775 154.727L192.098 161.182V159.389L184.926 153.652L182.416 143.969Z" fill="black"/>
<path d="M199.629 138.949L195.684 138.59V141.1L199.629 143.611L221.504 161.182L232.98 178.754L222.939 159.748L199.629 138.949Z" fill="#756B7A"/>
<path d="M219.711 186.643L199.988 164.41L187.436 164.768L193.174 165.844L197.836 168.355L216.842 187.719L231.904 220.711L219.711 186.643Z" fill="#756B7A"/>
<path d="M195.326 204.932L181.699 183.775L172.734 182.34L179.547 185.568L193.891 204.932L195.684 216.766L195.326 204.932Z" fill="#756B7A"/>
<path d="M170.223 77.6271L166.279 74.7582L167.355 78.3443L170.223 77.6271Z" fill="#756B7A"/>
<path d="M173.092 86.5922L169.148 84.082L170.223 87.668L173.092 86.5922Z" fill="#756B7A"/>
<path d="M175.602 95.1988L171.658 92.6885L172.734 96.2746L175.602 95.1988Z" fill="#756B7A"/>
<path d="M178.471 102.73L173.809 100.578L175.602 103.805L178.471 102.73Z" fill="#756B7A"/>
<path d="M181.34 110.26L177.037 108.109L178.471 111.695L181.34 110.26Z" fill="#756B7A"/>
<path d="M206.443 154.369L223.297 167.637L221.863 165.127L206.801 152.576L198.195 151.859L188.512 143.252L197.836 154.369H206.443Z" fill="#372D3F"/>
<path d="M197.119 181.623H189.229L190.305 179.113H197.119L215.766 191.305L221.504 204.574L215.049 192.74L197.119 181.623Z" fill="#372D3F"/>
<path d="M170.223 191.305L191.023 204.574L190.305 202.781L173.809 190.947L170.223 191.305Z" fill="#372D3F"/>
<path d="M180.982 120.66L168.072 83.7234V88.3852V95.916L173.092 103.805L180.982 120.66Z" fill="#011408"/>
<path d="M176.678 127.832L179.906 129.266L165.92 127.868L161.258 129.266L165.561 126.039L176.678 127.832Z" fill="#011408"/>
<path d="M170.223 149.348L157.672 140.742L156.238 119.225L159.465 139.666L171.658 147.914L173.809 160.824L179.547 170.506L172.375 161.182L170.223 149.348Z" fill="#011408"/>
<path d="M165.203 107.75L158.031 100.578L154.803 92.3299L157.314 101.654L163.768 108.467L169.506 122.453L170.941 123.529L165.203 107.75Z" fill="#011408"/>
<path d="M160.541 177.32L159.465 159.031L154.803 148.631L160.9 157.955L161.975 175.885L164.127 181.982L164.844 185.568L160.541 177.32Z" fill="#011408"/>
<path d="M200.705 162.617L202.498 155.086H201.422L200.705 156.162L197.836 159.031L193.891 161.182L186.719 162.617H200.705Z" fill="#011408"/>
<path d="M186.361 187.361L190.305 182.34H189.23L187.436 183.416L185.285 182.699L183.133 181.264H179.189L182.775 181.982L186.361 187.361Z" fill="#011408"/>
<path d="M195.326 128.908L181.34 121.377L192.816 129.984L197.836 136.797L195.326 128.908Z" fill="#011408"/>
<path d="M169.506 192.023L159.107 203.857L165.203 194.891L167.713 189.154L169.506 181.264V192.023Z" fill="#011408"/>
<path d="M130.059 77.6271L135.08 74.041L133.287 83.3648L130.777 91.6127L128.266 99.8607L125.039 107.391L121.453 115.639L118.943 110.26L124.68 107.391L121.453 102.73L127.549 99.8607L124.68 95.1988L130.059 91.6127L126.832 86.9508L132.211 83.3648L130.059 77.6271Z" fill="#554D5B" stroke="black"/>
<path d="M126.115 195.25L130.777 192.381L131.135 192.023L141.893 204.932L144.762 201.705L150.5 212.463V220.352L144.404 207.443L139.383 211.029L126.115 195.25Z" fill="#011408"/>
<path d="M150.5 64V182.699V212.463L144.762 201.346L141.893 204.574L129.342 189.871L114.281 187.719L101.371 170.148L97.7848 153.652L105.316 128.549L119.301 121.018L127.549 100.578L136.514 69.7377L150.5 64Z" fill="#3F413F"/>
<path d="M150.5 64L136.514 69.7377L127.908 99.5021L119.301 121.018L105.316 128.549L102.805 136.797L98.1434 155.086L102.088 173.375L110.336 182.34L114.281 187.719L131.135 192.023L141.893 204.574L144.762 201.346L150.5 212.463" stroke="black"/>
<path d="M100.654 162.975H117.867L112.129 181.982H104.24L86.3094 192.74L63 236.49L80.5717 185.926L100.654 162.975Z" fill="#554D5B" stroke="black"/>
<path d="M118.584 182.34L131.135 179.83V191.664L110.336 204.932L104.24 223.58V204.932L118.584 182.34Z" fill="#554D5B" stroke="black"/>
<path d="M103.523 154.727L113.205 142.893L106.391 137.156H101.371L77.3443 159.031L63.7172 186.285L77.3443 168.355L94.916 154.727H103.523Z" fill="#554D5B" stroke="black"/>
<path d="M117.867 139.307V133.57L121.453 129.625L135.439 128.191L139.742 131.059L117.867 139.307Z" fill="#61FF00" stroke="black"/>
<path d="M135.08 81.5717L137.59 76.1926L138.666 81.5717L137.59 89.4611L135.08 81.5717Z" fill="black" stroke="black"/>
<path d="M142.611 86.2336V76.1926L144.045 71.1721L145.121 86.2336L142.969 100.578L135.797 107.75L130.059 123.529L109.619 131.777L113.205 128.908L127.549 121.377L132.211 104.164L139.383 96.9918L142.611 86.2336Z" fill="black"/>
<path d="M146.197 143.611L147.273 112.771L145.121 116.357L143.328 140.742L130.777 149.348L128.984 161.182L121.094 170.865V174.092L130.777 162.975L134.363 151.141L146.197 143.611Z" fill="black"/>
<path d="M144.045 159.748L150.5 151.5V145.762L141.535 159.031L140.459 177.32L136.156 185.568V189.154L142.252 178.754L144.045 159.748Z" fill="black"/>
<path d="M118.584 143.969L139.742 133.928L137.949 136.439L121.453 145.404L118.225 154.727L108.902 161.182V159.389L116.074 153.652L118.584 143.969Z" fill="black"/>
<path d="M101.371 138.949L105.316 138.59V141.1L101.371 143.611L79.4959 161.182L68.0205 178.754L78.0615 159.748L101.371 138.949Z" fill="#756B7A"/>
<path d="M81.2889 186.643L101.012 164.41L113.564 164.768L107.826 165.844L103.164 168.355L84.1578 187.719L69.0963 220.711L81.2889 186.643Z" fill="#756B7A"/>
<path d="M105.674 204.932L119.301 183.775L128.266 182.34L121.453 185.568L107.109 204.932L105.316 216.766L105.674 204.932Z" fill="#756B7A"/>
<path d="M130.777 77.6271L134.721 74.7582L133.645 78.3443L130.777 77.6271Z" fill="#756B7A"/>
<path d="M127.908 86.5922L131.852 84.082L130.777 87.668L127.908 86.5922Z" fill="#756B7A"/>
<path d="M125.398 95.1988L129.342 92.6885L128.266 96.2746L125.398 95.1988Z" fill="#756B7A"/>
<path d="M122.529 102.73L127.191 100.578L125.398 103.805L122.529 102.73Z" fill="#756B7A"/>
<path d="M119.66 110.26L123.963 108.109L122.529 111.695L119.66 110.26Z" fill="#756B7A"/>
<path d="M94.5574 154.369L77.7029 167.637L79.1373 165.127L94.1988 152.576L102.805 151.859L112.488 143.252L103.164 154.369H94.5574Z" fill="#372D3F"/>
<path d="M103.881 181.623H111.771L110.695 179.113H103.881L85.2336 191.305L79.4959 204.574L85.9508 192.74L103.881 181.623Z" fill="#372D3F"/>
<path d="M130.777 191.305L109.977 204.574L110.695 202.781L127.191 190.947L130.777 191.305Z" fill="#372D3F"/>
<path d="M120.018 120.66L132.928 83.7234V88.3852V95.916L127.908 103.805L120.018 120.66Z" fill="#011408"/>
<path d="M124.322 127.832L121.094 129.266L135.08 127.868L139.742 129.266L135.439 126.039L124.322 127.832Z" fill="#011408"/>
<path d="M130.777 149.348L143.328 140.742L144.762 119.225L141.535 139.666L129.342 147.914L127.191 160.824L121.453 170.506L128.625 161.182L130.777 149.348Z" fill="#011408"/>
<path d="M135.797 107.75L142.969 100.578L146.197 92.3299L143.686 101.654L137.232 108.467L131.494 122.453L130.059 123.529L135.797 107.75Z" fill="#011408"/>
<path d="M140.459 177.32L141.535 159.031L146.197 148.631L140.1 157.955L139.025 175.885L136.873 181.982L136.156 185.568L140.459 177.32Z" fill="#011408"/>
<path d="M100.295 162.617L98.502 155.086H99.5779L100.295 156.162L103.164 159.031L107.109 161.182L114.281 162.617H100.295Z" fill="#011408"/>
<path d="M114.639 187.361L110.695 182.34H111.77L113.564 183.416L115.715 182.699L117.867 181.264H121.811L118.225 181.982L114.639 187.361Z" fill="#011408"/>
<path d="M105.674 128.908L119.66 121.377L108.184 129.984L103.164 136.797L105.674 128.908Z" fill="#011408"/>
<path d="M131.494 192.023L141.893 203.857L135.797 194.891L133.287 189.154L131.494 181.264V192.023Z" fill="#011408"/>
</svg>
