<svg width="300" height="300" viewBox="0 0 300 300" fill="none" xmlns="http://www.w3.org/2000/svg">
<path d="M149 267V174.5V160L161.028 144L183.16 132L187.972 140.5L189.896 150L191.821 168.5L177.387 175.5L165.358 190L157.66 217L149 267Z" fill="#3F413F"/>
<path d="M172.094 183.5H163.434L159.104 187.5L162.472 194L173.057 197.5L186.528 210L179.792 195L172.094 183.5Z" fill="#554D5B" stroke="black"/>
<path d="M191.34 164.5L183.641 162.5L179.311 165.5L182.679 172.5L191.821 178L200 193L195.67 173L191.34 164.5Z" fill="#554D5B" stroke="black"/>
<path d="M190.858 165.5L184.123 163.5L189.415 167L193.745 173.5L197.594 184.5L195.189 173.5L190.858 165.5Z" fill="#756B7A"/>
<path d="M183.16 172L192.302 177.5L191.34 175.5L184.123 171.5L180.755 167L183.16 172Z" fill="#372D3F"/>
<path d="M171.613 184.5H163.915L165.84 186L171.132 187L177.868 196.5L184.123 206.5L179.311 195.5L171.613 184.5Z" fill="#756B7A"/>
<path d="M173.538 197L162.953 193.5L161.509 191L173.538 195.5L180.274 203.5L173.538 197Z" fill="#372D3F"/>
<path d="M182.198 173L178.83 165.5V172L177.387 175.5L182.198 173Z" fill="#011408"/>
<path d="M161.991 194.5L158.623 187.5L158.142 189.5L159.585 197.5L160.066 208L163.915 195L161.991 194.5Z" fill="#011408"/>
<path d="M189.896 150L191.34 164L183.642 162L187.491 160.5L189.415 156L187.972 142.5L189.896 150Z" fill="#011408"/>
<path d="M157.66 217L149 267V175.5L155.255 201L157.66 217Z" fill="#554D5B"/>
<path d="M149.481 265.5L156.698 222.5L153.811 218L155.255 224.5L149 245.5V260L149.481 265.5Z" fill="#372D3F"/>
<path d="M150.443 209.5L149 177.5V240.5L150.443 209.5Z" fill="#756B7A"/>
<path d="M149 175.5L155.255 201L157.179 215.5L156.698 222L149 267" stroke="black"/>
<path d="M160.066 209L153.33 211L154.292 217.5L156.698 221.5L164.396 223L176.425 233.5L170.651 220L160.066 209Z" fill="#554D5B" stroke="black"/>
<path d="M170.17 220.5L160.066 210L154.292 211.5L159.585 212L169.208 221L173.538 228L170.17 220.5Z" fill="#756B7A"/>
<path d="M164.396 222.5L169.208 226.5L164.396 221L157.66 219.5L154.774 217.5L157.179 221L164.396 222.5Z" fill="#372D3F"/>
<path d="M149 267V174.5V160L136.972 144L114.84 132L110.028 140.5L108.104 150L106.179 168.5L120.613 175.5L132.642 190L140.34 217L149 267Z" fill="#3F413F"/>
<path d="M125.906 183.5H134.566L138.896 187.5L135.528 194L124.943 197.5L111.472 210L118.208 195L125.906 183.5Z" fill="#554D5B" stroke="black"/>
<path d="M106.66 164.5L114.359 162.5L118.689 165.5L115.321 172.5L106.179 178L98 193L102.33 173L106.66 164.5Z" fill="#554D5B" stroke="black"/>
<path d="M107.142 165.5L113.877 163.5L108.585 167L104.255 173.5L100.406 184.5L102.811 173.5L107.142 165.5Z" fill="#756B7A"/>
<path d="M114.84 172L105.698 177.5L106.66 175.5L113.877 171.5L117.245 167L114.84 172Z" fill="#372D3F"/>
<path d="M126.387 184.5H134.085L132.16 186L126.868 187L120.132 196.5L113.877 206.5L118.689 195.5L126.387 184.5Z" fill="#756B7A"/>
<path d="M124.462 197L135.047 193.5L136.491 191L124.462 195.5L117.726 203.5L124.462 197Z" fill="#372D3F"/>
<path d="M115.802 173L119.17 165.5V172L120.613 175.5L115.802 173Z" fill="#011408"/>
<path d="M136.009 194.5L139.377 187.5L139.858 189.5L138.415 197.5L137.934 208L134.085 195L136.009 194.5Z" fill="#011408"/>
<path d="M108.104 150L106.66 164L114.358 162L110.509 160.5L108.585 156L110.028 142.5L108.104 150Z" fill="#011408"/>
<path d="M140.34 217L149 267V175.5L142.745 201L140.34 217Z" fill="#554D5B"/>
<path d="M148.519 265.5L141.302 222.5L144.189 218L142.745 224.5L149 245.5V260L148.519 265.5Z" fill="#372D3F"/>
<path d="M147.557 209.5L149 177.5V240.5L147.557 209.5Z" fill="#756B7A"/>
<path d="M149 175.5L142.745 201L140.821 215.5L141.302 222L149 267" stroke="black"/>
<path d="M137.934 209L144.67 211L143.708 217.5L141.302 221.5L133.604 223L121.575 233.5L127.349 220L137.934 209Z" fill="#554D5B" stroke="black"/>
<path d="M127.83 220.5L137.934 210L143.708 211.5L138.415 212L128.792 221L124.462 228L127.83 220.5Z" fill="#756B7A"/>
<path d="M133.604 222.5L128.792 226.5L133.604 221L140.34 219.5L143.226 217.5L140.821 221L133.604 222.5Z" fill="#372D3F"/>
<path d="M135.192 151.285L149.5 174.507V157.493L135.749 142.157L115.494 132.811L111.964 137.81L110.291 141.722L114.937 139.549L126.83 144.113L135.192 151.285Z" fill="#011408"/>
<path d="M149.5 169.759V91.0829V75H145.574L136.105 76.0867L128.021 77.8254L121.324 80.6507L114.857 85.6495L111.162 91.0829L107.929 100.211L104.926 109.122L102.617 120.641L101 128.682V137.81L107.929 134.115L113.933 133.463L123.864 137.81L133.102 143.678L140.031 153.241L149.5 169.759Z" fill="#3F413F"/>
<path d="M149.5 135.419V169.759L140.031 153.241L133.333 143.896L123.633 137.81L113.933 133.463L107.698 134.333L101 137.81V128.465L104.464 122.814L108.852 119.337L115.781 117.815L123.633 117.381L132.64 119.337L140.955 124.335L149.5 135.419Z" fill="#554D5B" stroke="black"/>
<path d="M135.874 121.293V147.59" stroke="black"/>
<path d="M120.862 117.815V136.506" stroke="black"/>
<path d="M108.391 119.771V134.115" stroke="black"/>
<path d="M140.493 125.205L148.576 135.854L148.345 139.114L146.96 140.201H145.112L141.417 138.245L137.491 134.767L136.798 132.159V126.726L138.183 124.987L140.493 125.205Z" fill="#756B7A"/>
<path d="M127.79 119.554L133.102 121.075L134.95 122.162V124.335L134.488 126.291L132.64 127.378L130.1 127.595L127.329 127.378L124.326 126.291L122.248 124.77L121.555 123.031V121.075L122.479 119.554L123.864 118.902L127.79 119.554Z" fill="#756B7A"/>
<path d="M116.243 119.337L119.014 119.771L119.707 122.162L118.321 123.901L115.319 124.987H111.393L109.314 123.901V121.727L111.393 119.771L116.243 119.337Z" fill="#756B7A"/>
<path d="M106.081 122.814L107.005 123.031L107.698 124.335L107.467 126.726L105.85 128.899L103.31 130.638L101.924 130.855V128.899L103.54 126.291L106.081 122.814Z" fill="#756B7A"/>
<path d="M142.571 155.632L148.576 166.499L148.807 149.546L147.883 150.633H145.112L142.11 148.894L137.952 141.94L136.798 139.114V147.373L140.031 151.285L142.571 155.632Z" fill="#372D3F"/>
<path d="M133.795 143.026L134.95 144.765V136.723L133.102 137.593L130.562 136.941L125.943 134.115L122.94 131.29L121.555 128.247L121.786 136.071L124.095 136.941L133.795 143.026Z" fill="#372D3F"/>
<path d="M113.933 132.594L119.938 135.419V127.595L117.86 129.769H115.55L111.162 128.899L109.083 126.509V133.463L113.933 132.594Z" fill="#372D3F"/>
<path d="M107.467 133.463L107.698 129.334L105.85 132.811L103.31 133.463L101.693 132.377V136.941L107.467 133.463Z" fill="#372D3F"/>
<path d="M163.308 151.285L149 174.507V157.601L162.751 142.157L183.006 132.811L186.536 137.81L188.209 141.722L183.563 139.549L171.67 144.113L163.308 151.285Z" fill="#011408"/>
<path d="M149 169.759V91.0829V75H152.926L162.395 76.0867L170.479 77.8254L177.176 80.6507L183.643 85.6495L187.338 91.0829L190.571 100.211L193.574 109.122L195.883 120.641L197.5 128.682V137.81L190.571 134.115L184.567 133.463L174.636 137.81L165.398 143.678L158.469 153.241L149 169.759Z" fill="#3F413F"/>
<path d="M149 135.419V169.759L158.469 153.241L165.167 143.896L174.867 137.81L184.567 133.463L190.802 134.333L197.5 137.81V128.465L194.036 122.814L189.648 119.337L182.719 117.815L174.867 117.381L165.86 119.337L157.545 124.335L149 135.419Z" fill="#554D5B" stroke="black"/>
<path d="M162.626 121.293V147.59" stroke="black"/>
<path d="M177.638 117.815V136.506" stroke="black"/>
<path d="M190.11 119.771V134.115" stroke="black"/>
<path d="M158.007 125.205L149.924 135.854L150.155 139.114L151.54 140.201H153.388L157.083 138.245L161.01 134.767L161.702 132.159V126.726L160.317 124.987L158.007 125.205Z" fill="#756B7A"/>
<path d="M170.71 119.554L165.398 121.075L163.55 122.162V124.335L164.012 126.291L165.86 127.378L168.4 127.595L171.171 127.378L174.174 126.291L176.252 124.77L176.945 123.031V121.075L176.021 119.554L174.636 118.902L170.71 119.554Z" fill="#756B7A"/>
<path d="M182.257 119.337L179.486 119.771L178.793 122.162L180.179 123.901L183.181 124.987H187.107L189.186 123.901V121.727L187.107 119.771L182.257 119.337Z" fill="#756B7A"/>
<path d="M192.419 122.814L191.495 123.031L190.802 124.335L191.033 126.726L192.65 128.899L195.19 130.638L196.576 130.855V128.899L194.96 126.291L192.419 122.814Z" fill="#756B7A"/>
<path d="M155.929 155.632L149.924 166.499L149.693 149.546L150.617 150.633H153.388L156.39 148.894L160.548 141.94L161.702 139.114V147.373L158.469 151.285L155.929 155.632Z" fill="#372D3F"/>
<path d="M164.705 143.026L163.55 144.765V136.723L165.398 137.593L167.938 136.941L172.557 134.115L175.56 131.29L176.945 128.247L176.714 136.071L174.405 136.941L164.705 143.026Z" fill="#372D3F"/>
<path d="M184.567 132.594L178.562 135.419V127.595L180.64 129.769H182.95L187.338 128.899L189.417 126.509V133.463L184.567 132.594Z" fill="#372D3F"/>
<path d="M191.033 133.463L190.802 129.334L192.65 132.811L195.19 133.463L196.807 132.377V136.941L191.033 133.463Z" fill="#372D3F"/>
</svg>
