<svg width="40" height="42" viewBox="0 0 40 42" fill="none" xmlns="http://www.w3.org/2000/svg">
<g clip-path="url(#clip0)">
<path d="M10.9819 37.6591C9.14589 35.5361 7.30998 33.3282 6.1416 30.6957C4.97329 27.8934 4.63945 24.6666 5.22365 21.6095C5.80784 18.5525 7.14303 15.6652 9.06249 13.2026C8.89561 15.3256 9.64668 17.5334 11.0653 19.1469C10.2308 15.0708 11.5661 10.6551 14.2365 7.42819C16.907 4.20132 20.5789 2.07826 24.4177 0.634674C22.4983 2.67271 22.248 5.89958 22.999 8.61702C23.7501 11.3344 25.3357 13.7121 26.7544 16.1747C28.1731 18.6373 29.5083 21.1849 29.5918 23.9872C30.3429 22.5436 31.1774 21.0999 31.6781 19.4865C32.1789 17.8731 32.4292 16.1747 32.012 14.5612C33.5141 16.4295 34.3487 18.2976 34.7659 20.6754C35.1831 23.0531 35.0997 25.5157 34.8494 27.8934C34.5156 30.5259 33.848 33.2433 32.4293 35.4511C30.7603 38.0836 28.0897 39.9518 25.1689 40.9708C19.9947 41.905 14.9041 41.1407 10.9819 37.6591Z" fill="#FF2500"/>
<path d="M17.3243 40.801C24.1673 43.5184 30.927 35.2813 27.1716 28.9125C27.1716 28.8275 27.0881 28.8275 27.0881 28.7427C27.422 32.2243 26.5874 34.7718 25.0018 36.2155C25.8363 34.1775 25.2522 31.7997 24.2507 29.7617C23.2493 27.8086 21.8306 26.0253 20.7457 24.1571C19.6608 22.204 18.8263 19.9961 19.3271 17.7882C17.3242 19.3167 15.9055 21.6095 15.3213 24.0721C14.7371 26.5347 15.071 29.2522 16.1559 31.545C14.9041 30.6109 13.9861 29.0824 13.9027 27.4689C12.5674 29.0824 11.7329 31.2053 11.8163 33.3283C11.8164 36.6401 14.4034 39.6122 17.3243 40.801Z" fill="#FFB800"/>
</g>
<defs>
<clipPath id="clip0">
<rect width="40" height="40.7026" fill="white" transform="translate(0 0.634674)"/>
</clipPath>
</defs>
</svg>
