<svg width="300" height="300" viewBox="0 0 300 300" fill="none" xmlns="http://www.w3.org/2000/svg">
<rect x="124" y="100" width="17" height="10" fill="#697879"/>
<rect x="124" y="110" width="17" height="10" fill="#847C89"/>
<path d="M140 120H125L140 110V120Z" fill="#525652"/>
<line x1="124" y1="100.611" x2="141" y2="100.611" stroke="black"/>
<line x1="124" y1="109.5" x2="141" y2="109.5" stroke="black"/>
<line x1="124.5" y1="100" x2="124.5" y2="120" stroke="black"/>
<line x1="140.5" y1="100" x2="140.5" y2="120" stroke="black"/>
<rect x="124" y="120" width="17" height="10" fill="#697879"/>
<rect x="124" y="130" width="17" height="10" fill="#847C89"/>
<path d="M140 140H125L140 130V140Z" fill="#525652"/>
<line x1="124" y1="120.611" x2="141" y2="120.611" stroke="black"/>
<line x1="124" y1="129.5" x2="141" y2="129.5" stroke="black"/>
<line x1="124.5" y1="120" x2="124.5" y2="140" stroke="black"/>
<line x1="140.5" y1="120" x2="140.5" y2="140" stroke="black"/>
<rect x="124" y="140" width="17" height="10" fill="#697879"/>
<rect x="124" y="150" width="17" height="10" fill="#847C89"/>
<path d="M140 160H125L140 150V160Z" fill="#525652"/>
<line x1="124" y1="140.611" x2="141" y2="140.611" stroke="black"/>
<line x1="124" y1="149.5" x2="141" y2="149.5" stroke="black"/>
<line x1="124.5" y1="140" x2="124.5" y2="160" stroke="black"/>
<line x1="140.5" y1="140" x2="140.5" y2="160" stroke="black"/>
<rect x="124" y="160" width="17" height="10" fill="#697879"/>
<rect x="124" y="170" width="17" height="10" fill="#847C89"/>
<path d="M140 180H125L140 170V180Z" fill="#525652"/>
<line x1="124" y1="160.611" x2="141" y2="160.611" stroke="black"/>
<line x1="124" y1="169.5" x2="141" y2="169.5" stroke="black"/>
<line x1="124.5" y1="160" x2="124.5" y2="180" stroke="black"/>
<line x1="140.5" y1="160" x2="140.5" y2="180" stroke="black"/>
<rect x="124" y="180" width="17" height="10" fill="#697879"/>
<rect x="124" y="190" width="17" height="10" fill="#847C89"/>
<path d="M140 200H125L140 190V200Z" fill="#525652"/>
<line x1="124" y1="180.611" x2="141" y2="180.611" stroke="black"/>
<line x1="124" y1="189.5" x2="141" y2="189.5" stroke="black"/>
<line x1="124.5" y1="180" x2="124.5" y2="200" stroke="black"/>
<line x1="140.5" y1="180" x2="140.5" y2="200" stroke="black"/>
<rect x="158" y="100" width="17" height="10" fill="#697879"/>
<rect x="158" y="110" width="17" height="10" fill="#847C89"/>
<path d="M174 120H159L174 110V120Z" fill="#525652"/>
<line x1="158" y1="100.611" x2="175" y2="100.611" stroke="black"/>
<line x1="158" y1="109.5" x2="175" y2="109.5" stroke="black"/>
<line x1="158.5" y1="100" x2="158.5" y2="120" stroke="black"/>
<line x1="174.5" y1="100" x2="174.5" y2="120" stroke="black"/>
<rect x="158" y="120" width="17" height="10" fill="#697879"/>
<rect x="158" y="130" width="17" height="10" fill="#847C89"/>
<path d="M174 140H159L174 130V140Z" fill="#525652"/>
<line x1="158" y1="120.611" x2="175" y2="120.611" stroke="black"/>
<line x1="158" y1="129.5" x2="175" y2="129.5" stroke="black"/>
<line x1="158.5" y1="120" x2="158.5" y2="140" stroke="black"/>
<line x1="174.5" y1="120" x2="174.5" y2="140" stroke="black"/>
<rect x="158" y="140" width="17" height="10" fill="#697879"/>
<rect x="158" y="150" width="17" height="10" fill="#847C89"/>
<path d="M174 160H159L174 150V160Z" fill="#525652"/>
<line x1="158" y1="140.611" x2="175" y2="140.611" stroke="black"/>
<line x1="158" y1="149.5" x2="175" y2="149.5" stroke="black"/>
<line x1="158.5" y1="140" x2="158.5" y2="160" stroke="black"/>
<line x1="174.5" y1="140" x2="174.5" y2="160" stroke="black"/>
<rect x="158" y="160" width="17" height="10" fill="#697879"/>
<rect x="158" y="170" width="17" height="10" fill="#847C89"/>
<path d="M174 180H159L174 170V180Z" fill="#525652"/>
<line x1="158" y1="160.611" x2="175" y2="160.611" stroke="black"/>
<line x1="158" y1="169.5" x2="175" y2="169.5" stroke="black"/>
<line x1="158.5" y1="160" x2="158.5" y2="180" stroke="black"/>
<line x1="174.5" y1="160" x2="174.5" y2="180" stroke="black"/>
<rect x="158" y="180" width="17" height="10" fill="#697879"/>
<rect x="158" y="190" width="17" height="10" fill="#847C89"/>
<path d="M174 200H159L174 190V200Z" fill="#525652"/>
<line x1="158" y1="180.611" x2="175" y2="180.611" stroke="black"/>
<line x1="158" y1="189.5" x2="175" y2="189.5" stroke="black"/>
<line x1="158.5" y1="180" x2="158.5" y2="200" stroke="black"/>
<line x1="174.5" y1="180" x2="174.5" y2="200" stroke="black"/>
<rect x="141" y="100" width="17" height="100" fill="#515050"/>
<path d="M175 100L187.318 125V225L175 200V100Z" fill="black" fill-opacity="0.2"/>
</svg>
