<svg width="300" height="300" viewBox="0 0 300 300" fill="none" xmlns="http://www.w3.org/2000/svg">
<path d="M135.133 201.609L149 225V207.862L135.673 192.414L116.043 183L112.621 188.035L111 191.976L115.502 189.787L127.028 194.384L135.133 201.609Z" fill="#011408"/>
<path d="M163.232 201.609L149 225V207.862L162.678 192.414L182.825 183L186.336 188.035L188 191.976L183.379 189.787L171.55 194.384L163.232 201.609Z" fill="#011408"/>
<path d="M149.5 218.269V139.593V123.51H145.574L136.105 124.597L128.021 126.335L121.324 129.161L114.857 134.159L111.162 139.593L107.929 148.721L104.926 157.632L102.617 169.151L101 177.192V186.32L107.929 182.625L113.933 181.973L123.864 186.32L133.102 192.188L140.031 201.751L149.5 218.269Z" fill="#3F413F"/>
<path d="M149.5 183.929V218.268L140.031 201.751L133.333 192.405L123.633 186.32L113.933 181.973L107.698 182.843L101 186.32V176.975L104.464 171.324L108.852 167.846L115.781 166.325L123.633 165.89L132.641 167.846L140.955 172.845L149.5 183.929Z" fill="#554D5B" stroke="black"/>
<path d="M135.874 169.803V196.1" stroke="black"/>
<path d="M120.862 166.325V185.016" stroke="black"/>
<path d="M108.391 168.281V182.625" stroke="black"/>
<path d="M140.493 173.715L148.576 184.364L148.345 187.624L146.96 188.711H145.112L141.417 186.755L137.491 183.277L136.798 180.669V175.236L138.183 173.497L140.493 173.715Z" fill="#756B7A"/>
<path d="M127.791 168.064L133.102 169.585L134.95 170.672V172.845L134.488 174.801L132.641 175.888L130.1 176.105L127.329 175.888L124.326 174.801L122.248 173.28L121.555 171.541V169.585L122.479 168.064L123.864 167.412L127.791 168.064Z" fill="#756B7A"/>
<path d="M116.243 167.846L119.014 168.281L119.707 170.672L118.321 172.411L115.319 173.497H111.393L109.314 172.411V170.237L111.393 168.281L116.243 167.846Z" fill="#756B7A"/>
<path d="M106.081 171.324L107.005 171.541L107.698 172.845L107.467 175.236L105.85 177.409L103.31 179.148L101.924 179.365V177.409L103.541 174.801L106.081 171.324Z" fill="#756B7A"/>
<path d="M142.572 204.142L148.576 215.008L148.807 198.056L147.883 199.143H145.112L142.11 197.404L137.952 190.449L136.798 187.624V195.883L140.031 199.795L142.572 204.142Z" fill="#372D3F"/>
<path d="M133.795 191.536L134.95 193.275V185.233L133.102 186.103L130.562 185.451L125.943 182.625L122.941 179.8L121.555 176.757L121.786 184.581L124.095 185.451L133.795 191.536Z" fill="#372D3F"/>
<path d="M113.933 181.104L119.938 183.929V176.105L117.86 178.279H115.55L111.162 177.409L109.083 175.019V181.973L113.933 181.104Z" fill="#372D3F"/>
<path d="M107.467 181.973L107.698 177.844L105.85 181.321L103.31 181.973L101.693 180.887V185.451L107.467 181.973Z" fill="#372D3F"/>
<path d="M135.192 151.332L149.5 174.554V157.54L135.749 142.204L115.494 132.858L111.964 137.857L110.291 141.769L114.937 139.596L126.83 144.16L135.192 151.332Z" fill="#011408"/>
<path d="M149.5 169.806V91.1298V75.047H145.574L136.105 76.1336L128.021 77.8723L121.324 80.6977L114.857 85.6964L111.162 91.1298L107.929 100.258L104.926 109.169L102.617 120.688L101 128.729V137.857L107.929 134.162L113.933 133.51L123.864 137.857L133.102 143.725L140.031 153.288L149.5 169.806Z" fill="#3F413F"/>
<path d="M149.5 135.466V169.806L140.031 153.288L133.333 143.943L123.633 137.857L113.933 133.51L107.698 134.38L101 137.857V128.512L104.464 122.861L108.852 119.384L115.781 117.862L123.633 117.428L132.641 119.384L140.955 124.382L149.5 135.466Z" fill="#554D5B" stroke="black"/>
<path d="M135.874 121.34V147.637" stroke="black"/>
<path d="M120.862 117.862V136.553" stroke="black"/>
<path d="M108.391 119.818V134.162" stroke="black"/>
<path d="M140.493 125.252L148.576 135.901L148.345 139.161L146.96 140.248H145.112L141.417 138.292L137.491 134.814L136.798 132.206V126.773L138.183 125.034L140.493 125.252Z" fill="#756B7A"/>
<path d="M127.791 119.601L133.102 121.122L134.95 122.209V124.382L134.488 126.338L132.641 127.425L130.1 127.642L127.329 127.425L124.326 126.338L122.248 124.817L121.555 123.078V121.122L122.479 119.601L123.864 118.949L127.791 119.601Z" fill="#756B7A"/>
<path d="M116.243 119.384L119.014 119.818L119.707 122.209L118.321 123.948L115.319 125.034H111.393L109.314 123.948V121.774L111.393 119.818L116.243 119.384Z" fill="#756B7A"/>
<path d="M106.081 122.861L107.005 123.078L107.698 124.382L107.467 126.773L105.85 128.946L103.31 130.685L101.924 130.902V128.946L103.541 126.338L106.081 122.861Z" fill="#756B7A"/>
<path d="M142.572 155.679L148.576 166.545L148.807 149.593L147.883 150.68H145.112L142.11 148.941L137.952 141.987L136.798 139.161V147.42L140.031 151.332L142.572 155.679Z" fill="#372D3F"/>
<path d="M133.795 143.073L134.95 144.812V136.77L133.102 137.64L130.562 136.988L125.943 134.162L122.941 131.337L121.555 128.294L121.786 136.118L124.095 136.988L133.795 143.073Z" fill="#372D3F"/>
<path d="M113.933 132.641L119.938 135.466V127.642L117.86 129.816H115.55L111.162 128.946L109.083 126.556V133.51L113.933 132.641Z" fill="#372D3F"/>
<path d="M107.467 133.51L107.698 129.381L105.85 132.858L103.31 133.51L101.693 132.424V136.988L107.467 133.51Z" fill="#372D3F"/>
<path d="M149.5 218.269V139.593V123.51H153.426L162.895 124.597L170.979 126.335L177.676 129.161L184.143 134.159L187.838 139.593L191.071 148.721L194.074 157.632L196.383 169.151L198 177.192V186.32L191.071 182.625L185.067 181.973L175.136 186.32L165.898 192.188L158.969 201.751L149.5 218.269Z" fill="#3F413F"/>
<path d="M149.5 183.929V218.268L158.969 201.751L165.667 192.405L175.367 186.32L185.067 181.973L191.302 182.843L198 186.32V176.975L194.536 171.324L190.148 167.846L183.219 166.325L175.367 165.89L166.36 167.846L158.045 172.845L149.5 183.929Z" fill="#554D5B" stroke="black"/>
<path d="M163.126 169.803V196.1" stroke="black"/>
<path d="M178.138 166.325V185.016" stroke="black"/>
<path d="M190.61 168.281V182.625" stroke="black"/>
<path d="M158.507 173.715L150.424 184.364L150.655 187.624L152.04 188.711H153.888L157.583 186.755L161.51 183.277L162.202 180.669V175.236L160.817 173.497L158.507 173.715Z" fill="#756B7A"/>
<path d="M171.21 168.064L165.898 169.585L164.05 170.672V172.845L164.512 174.801L166.36 175.888L168.9 176.105L171.671 175.888L174.674 174.801L176.752 173.28L177.445 171.541V169.585L176.521 168.064L175.136 167.412L171.21 168.064Z" fill="#756B7A"/>
<path d="M182.757 167.846L179.986 168.281L179.293 170.672L180.679 172.411L183.681 173.497H187.607L189.686 172.411V170.237L187.607 168.281L182.757 167.846Z" fill="#756B7A"/>
<path d="M192.919 171.324L191.995 171.541L191.302 172.845L191.533 175.236L193.15 177.409L195.691 179.148L197.076 179.365V177.409L195.46 174.801L192.919 171.324Z" fill="#756B7A"/>
<path d="M156.429 204.142L150.424 215.008L150.193 198.056L151.117 199.143H153.888L156.89 197.404L161.048 190.449L162.202 187.624V195.883L158.969 199.795L156.429 204.142Z" fill="#372D3F"/>
<path d="M165.205 191.536L164.05 193.275V185.233L165.898 186.103L168.438 185.451L173.057 182.625L176.06 179.8L177.445 176.757L177.214 184.581L174.905 185.451L165.205 191.536Z" fill="#372D3F"/>
<path d="M185.067 181.104L179.062 183.929V176.105L181.141 178.279H183.45L187.838 177.409L189.917 175.019V181.973L185.067 181.104Z" fill="#372D3F"/>
<path d="M191.533 181.973L191.302 177.844L193.15 181.321L195.691 181.973L197.307 180.887V185.451L191.533 181.973Z" fill="#372D3F"/>
<path d="M163.808 151.332L149.5 174.554V157.648L163.251 142.204L183.506 132.858L187.036 137.857L188.709 141.769L184.063 139.596L172.171 144.16L163.808 151.332Z" fill="#011408"/>
<path d="M149.5 169.806V91.1298V75.047H153.426L162.895 76.1336L170.979 77.8723L177.676 80.6977L184.143 85.6964L187.838 91.1298L191.071 100.258L194.074 109.169L196.383 120.688L198 128.729V137.857L191.071 134.162L185.067 133.51L175.136 137.857L165.898 143.725L158.969 153.288L149.5 169.806Z" fill="#3F413F"/>
<path d="M149.5 135.466V169.806L158.969 153.288L165.667 143.943L175.367 137.857L185.067 133.51L191.302 134.38L198 137.857V128.512L194.536 122.861L190.148 119.384L183.219 117.862L175.367 117.428L166.36 119.384L158.045 124.382L149.5 135.466Z" fill="#554D5B" stroke="black"/>
<path d="M163.126 121.34V147.637" stroke="black"/>
<path d="M178.138 117.862V136.553" stroke="black"/>
<path d="M190.61 119.818V134.162" stroke="black"/>
<path d="M158.507 125.252L150.424 135.901L150.655 139.161L152.04 140.248H153.888L157.583 138.292L161.51 134.814L162.202 132.206V126.773L160.817 125.034L158.507 125.252Z" fill="#756B7A"/>
<path d="M171.21 119.601L165.898 121.122L164.05 122.209V124.382L164.512 126.338L166.36 127.425L168.9 127.642L171.671 127.425L174.674 126.338L176.752 124.817L177.445 123.078V121.122L176.521 119.601L175.136 118.949L171.21 119.601Z" fill="#756B7A"/>
<path d="M182.757 119.384L179.986 119.818L179.293 122.209L180.679 123.948L183.681 125.034H187.607L189.686 123.948V121.774L187.607 119.818L182.757 119.384Z" fill="#756B7A"/>
<path d="M192.919 122.861L191.995 123.078L191.302 124.382L191.533 126.773L193.15 128.946L195.691 130.685L197.076 130.902V128.946L195.46 126.338L192.919 122.861Z" fill="#756B7A"/>
<path d="M156.429 155.679L150.424 166.545L150.193 149.593L151.117 150.68H153.888L156.89 148.941L161.048 141.987L162.202 139.161V147.42L158.969 151.332L156.429 155.679Z" fill="#372D3F"/>
<path d="M165.205 143.073L164.05 144.812V136.77L165.898 137.64L168.438 136.988L173.057 134.162L176.06 131.337L177.445 128.294L177.214 136.118L174.905 136.988L165.205 143.073Z" fill="#372D3F"/>
<path d="M185.067 132.641L179.062 135.466V127.642L181.141 129.816H183.45L187.838 128.946L189.917 126.556V133.51L185.067 132.641Z" fill="#372D3F"/>
<path d="M191.533 133.51L191.302 129.381L193.15 132.858L195.691 133.51L197.307 132.424V136.988L191.533 133.51Z" fill="#372D3F"/>
</svg>
