<svg width="300" height="300" viewBox="0 0 300 300" fill="none" xmlns="http://www.w3.org/2000/svg">
<rect x="94" y="94" width="112" height="112" rx="51" fill="url(#paint0_radial)" stroke="#FF0000" stroke-width="2"/>
<rect x="142" y="117" width="18" height="7" fill="#080709"/>
<path d="M155 197.368V190H163L162.733 197.368L161.133 200H156.333L155 197.368Z" fill="#33231F" stroke="black"/>
<path d="M144 197.368V190H136L136.267 197.368L137.867 200H142.667L144 197.368Z" fill="#33231F" stroke="black"/>
<path d="M135.118 121.917H163.941V156.523H135.118V121.917Z" fill="#342B37"/>
<path d="M135.118 121.917V121.417H134.618V121.917H135.118ZM163.941 121.917H164.441V121.417H163.941V121.917ZM163.941 156.523V157.023H164.441V156.523H163.941ZM135.118 156.523H134.618V157.023H135.118V156.523ZM135.118 122.417H163.941V121.417H135.118V122.417ZM163.441 121.917V156.523H164.441V121.917H163.441ZM163.941 156.023H135.118V157.023H163.941V156.023ZM135.618 156.523V121.917H134.618V156.523H135.618Z" fill="black"/>
<path fill-rule="evenodd" clip-rule="evenodd" d="M149.529 156.523H163.941L176.5 191.5L164.5 192.5L151 197.5L150.527 187.43L145.5 189.5L132 190L134 172.5L135.118 156.523H149.529Z" fill="#342B37"/>
<path d="M163.941 156.523L164.412 156.354L164.293 156.023H163.941V156.523ZM176.5 191.5L176.542 191.998L177.191 191.944L176.971 191.331L176.5 191.5ZM164.5 192.5L164.458 192.002L164.39 192.007L164.326 192.031L164.5 192.5ZM151 197.5L150.501 197.523L150.533 198.206L151.174 197.969L151 197.5ZM150.527 187.43L151.027 187.407L150.993 186.697L150.337 186.968L150.527 187.43ZM145.5 189.5L145.519 190L145.608 189.996L145.69 189.962L145.5 189.5ZM132 190L131.503 189.943L131.437 190.521L132.019 190.5L132 190ZM134 172.5L134.497 172.557L134.498 172.546L134.499 172.535L134 172.5ZM135.118 156.523V156.023H134.651L134.619 156.488L135.118 156.523ZM163.941 156.023H149.529V157.023H163.941V156.023ZM176.971 191.331L164.412 156.354L163.471 156.692L176.029 191.669L176.971 191.331ZM164.542 192.998L176.542 191.998L176.458 191.002L164.458 192.002L164.542 192.998ZM151.174 197.969L164.674 192.969L164.326 192.031L150.826 197.031L151.174 197.969ZM150.028 187.453L150.501 197.523L151.499 197.477L151.027 187.407L150.028 187.453ZM150.337 186.968L145.31 189.038L145.69 189.962L150.718 187.892L150.337 186.968ZM145.481 189L131.981 189.5L132.019 190.5L145.519 190L145.481 189ZM132.497 190.057L134.497 172.557L133.503 172.443L131.503 189.943L132.497 190.057ZM134.499 172.535L135.616 156.558L134.619 156.488L133.501 172.465L134.499 172.535ZM135.118 157.023H149.529V156.023H135.118V157.023Z" fill="black"/>
<path d="M151 187.5L149.5 160V140V122.5" stroke="black"/>
<mask id="path-10-outside-1" maskUnits="userSpaceOnUse" x="119" y="155" width="81" height="4" fill="black">
<rect fill="white" x="119" y="155" width="81" height="4"/>
<path d="M199 156L199 158L120 158L120 156L199 156Z"/>
</mask>
<path d="M199 156L199 158L120 158L120 156L199 156Z" fill="#382E22"/>
<path d="M199 156L200 156L200 155L199 155L199 156ZM199 158L199 159L200 159L200 158L199 158ZM120 158L119 158L119 159L120 159L120 158ZM120 156L120 155L119 155L119 156L120 156ZM198 156L198 158L200 158L200 156L198 156ZM199 157L120 157L120 159L199 159L199 157ZM121 158L121 156L119 156L119 158L121 158ZM120 157L199 157L199 155L120 155L120 157Z" fill="black" mask="url(#path-10-outside-1)"/>
<path d="M119.5 153.5L124 161H108L95.5 156.5L88.5 151L82 144L97.5 150.5L107.5 153L119.5 153.5Z" fill="#C4C4C4" stroke="black"/>
<rect x="146.206" y="118.956" width="8.41177" height="3.15279" fill="#825757" stroke="black"/>
<path fill-rule="evenodd" clip-rule="evenodd" d="M163.941 121.917L171.588 123.045L176.294 130.568V135.413H176.294L178.941 146.141L175.118 155.139L174.824 158.6L173.647 159.984H169.235L168.059 158.946V155.485L168.941 154.793L168.968 154.794L169.529 147.526L164.57 135.511L164 135.5L163.941 121.917Z" fill="#825757"/>
<path d="M171.588 123.045L172.012 122.78L171.89 122.584L171.661 122.551L171.588 123.045ZM163.941 121.917L164.014 121.422L163.439 121.337L163.441 121.919L163.941 121.917ZM176.294 130.568H176.794V130.425L176.718 130.303L176.294 130.568ZM176.294 135.413H175.794V135.913H176.294V135.413ZM176.294 135.413L176.78 135.293L176.686 134.913H176.294V135.413ZM178.941 146.141L179.401 146.337L179.467 146.183L179.427 146.022L178.941 146.141ZM175.118 155.139L174.657 154.943L174.626 155.017L174.619 155.097L175.118 155.139ZM174.824 158.6L175.205 158.923L175.308 158.801L175.322 158.642L174.824 158.6ZM173.647 159.984V160.484H173.878L174.028 160.308L173.647 159.984ZM169.235 159.984L168.904 160.359L169.046 160.484H169.235V159.984ZM168.059 158.946H167.559V159.171L167.728 159.321L168.059 158.946ZM168.059 155.485L167.75 155.092L167.559 155.242V155.485H168.059ZM168.941 154.793L168.969 154.294L168.781 154.283L168.633 154.4L168.941 154.793ZM168.968 154.794L168.94 155.294L169.429 155.321L169.466 154.833L168.968 154.794ZM169.529 147.526L170.028 147.564L170.037 147.445L169.992 147.335L169.529 147.526ZM164.57 135.511L165.032 135.32L164.907 135.018L164.58 135.011L164.57 135.511ZM164 135.5L163.5 135.502L163.502 135.99L163.99 136L164 135.5ZM171.661 122.551L164.014 121.422L163.868 122.411L171.515 123.54L171.661 122.551ZM176.718 130.303L172.012 122.78L171.164 123.31L175.87 130.834L176.718 130.303ZM176.794 135.413V130.568H175.794V135.413H176.794ZM176.294 134.913H176.294V135.913H176.294V134.913ZM179.427 146.022L176.78 135.293L175.809 135.533L178.456 146.261L179.427 146.022ZM175.578 155.335L179.401 146.337L178.481 145.946L174.657 154.943L175.578 155.335ZM175.322 158.642L175.616 155.181L174.619 155.097L174.325 158.557L175.322 158.642ZM174.028 160.308L175.205 158.923L174.443 158.276L173.266 159.66L174.028 160.308ZM169.235 160.484H173.647V159.484H169.235V160.484ZM167.728 159.321L168.904 160.359L169.566 159.609L168.39 158.571L167.728 159.321ZM167.559 155.485V158.946H168.559V155.485H167.559ZM168.633 154.4L167.75 155.092L168.367 155.878L169.25 155.186L168.633 154.4ZM168.996 154.295L168.969 154.294L168.913 155.292L168.94 155.294L168.996 154.295ZM169.031 147.487L168.469 154.756L169.466 154.833L170.028 147.564L169.031 147.487ZM164.108 135.702L169.067 147.716L169.992 147.335L165.032 135.32L164.108 135.702ZM163.99 136L164.56 136.011L164.58 135.011L164.01 135L163.99 136ZM163.441 121.919L163.5 135.502L164.5 135.498L164.441 121.915L163.441 121.919Z" fill="black"/>
<path fill-rule="evenodd" clip-rule="evenodd" d="M135.118 121.917L127.471 123.045L122.765 130.568V135.414L120.412 146.141L124.235 155.139L124.529 158.6L125.706 159.984H130.118L131.294 158.946V155.485L130.412 154.793L130.385 154.794L129.824 147.526L134.482 135.535L135 135.5L135.118 121.917Z" fill="#825757"/>
<path d="M127.471 123.045L127.047 122.78L127.169 122.584L127.398 122.551L127.471 123.045ZM135.118 121.917L135.045 121.422L135.623 121.337L135.618 121.921L135.118 121.917ZM122.765 130.568H122.265V130.425L122.341 130.303L122.765 130.568ZM122.765 135.414H123.265V135.468L123.253 135.521L122.765 135.414ZM120.412 146.141L119.952 146.337L119.889 146.19L119.923 146.034L120.412 146.141ZM124.235 155.139L124.695 154.943L124.727 155.017L124.733 155.097L124.235 155.139ZM124.529 158.6L124.148 158.923L124.045 158.801L124.031 158.642L124.529 158.6ZM125.706 159.984V160.484H125.475L125.325 160.308L125.706 159.984ZM130.118 159.984L130.448 160.359L130.307 160.484H130.118V159.984ZM131.294 158.946H131.794V159.171L131.625 159.321L131.294 158.946ZM131.294 155.485L131.603 155.092L131.794 155.242V155.485H131.294ZM130.412 154.793L130.384 154.294L130.572 154.283L130.72 154.4L130.412 154.793ZM130.385 154.794L130.413 155.294L129.924 155.321L129.887 154.833L130.385 154.794ZM129.824 147.526L129.325 147.564L129.316 147.451L129.357 147.344L129.824 147.526ZM134.482 135.535L134.016 135.354L134.131 135.057L134.448 135.036L134.482 135.535ZM135 135.5L135.5 135.504L135.496 135.968L135.034 135.999L135 135.5ZM127.398 122.551L135.045 121.422L135.191 122.411L127.544 123.54L127.398 122.551ZM122.341 130.303L127.047 122.78L127.894 123.31L123.189 130.834L122.341 130.303ZM122.265 135.414V130.568H123.265V135.414H122.265ZM119.923 146.034L122.276 135.306L123.253 135.521L120.9 146.248L119.923 146.034ZM123.775 155.335L119.952 146.337L120.872 145.946L124.695 154.943L123.775 155.335ZM124.031 158.642L123.737 155.181L124.733 155.097L125.028 158.557L124.031 158.642ZM125.325 160.308L124.148 158.923L124.91 158.276L126.087 159.66L125.325 160.308ZM130.118 160.484H125.706V159.484H130.118V160.484ZM131.625 159.321L130.448 160.359L129.787 159.609L130.963 158.571L131.625 159.321ZM131.794 155.485V158.946H130.794V155.485H131.794ZM130.72 154.4L131.603 155.092L130.985 155.878L130.103 155.186L130.72 154.4ZM130.357 154.295L130.384 154.294L130.44 155.292L130.413 155.294L130.357 154.295ZM130.322 147.487L130.884 154.756L129.887 154.833L129.325 147.564L130.322 147.487ZM134.948 135.716L130.29 147.707L129.357 147.344L134.016 135.354L134.948 135.716ZM135.034 135.999L134.516 136.034L134.448 135.036L134.966 135.001L135.034 135.999ZM135.618 121.921L135.5 135.504L134.5 135.496L134.618 121.912L135.618 121.921Z" fill="black"/>
<path fill-rule="evenodd" clip-rule="evenodd" d="M150.118 120.186L143.647 119.494L140.412 110.15L142 102L150.118 98.0382L158 102L159.824 110.15L156.588 119.494L150.118 120.186Z" fill="#825757"/>
<path d="M143.647 119.494L143.175 119.658L143.278 119.958L143.594 119.991L143.647 119.494ZM150.118 120.186L150.064 120.684L150.118 120.689L150.171 120.684L150.118 120.186ZM140.412 110.15L139.921 110.055L139.895 110.187L139.939 110.314L140.412 110.15ZM142 102L141.781 101.551L141.557 101.66L141.509 101.904L142 102ZM150.118 98.0382L150.342 97.5914L150.121 97.4802L149.898 97.5888L150.118 98.0382ZM158 102L158.488 101.891L158.436 101.66L158.225 101.553L158 102ZM159.824 110.15L160.296 110.314L160.342 110.18L160.311 110.041L159.824 110.15ZM156.588 119.494L156.641 119.991L156.957 119.958L157.061 119.658L156.588 119.494ZM143.594 119.991L150.064 120.684L150.171 119.689L143.7 118.997L143.594 119.991ZM139.939 110.314L143.175 119.658L144.12 119.331L140.884 109.987L139.939 110.314ZM141.509 101.904L139.921 110.055L140.903 110.246L142.491 102.096L141.509 101.904ZM149.898 97.5888L141.781 101.551L142.219 102.449L150.337 98.4875L149.898 97.5888ZM149.893 98.4849L157.775 102.447L158.225 101.553L150.342 97.5914L149.893 98.4849ZM157.512 102.109L159.336 110.26L160.311 110.041L158.488 101.891L157.512 102.109ZM159.351 109.987L156.116 119.331L157.061 119.658L160.296 110.314L159.351 109.987ZM156.535 118.997L150.064 119.689L150.171 120.684L156.641 119.991L156.535 118.997Z" fill="black"/>
<path d="M153.5 97.5L150.118 97V105.998L153.5 108L157 110.5L156.5 123L160 129.5L164 122L162.5 117.5L159.5 103.5L157.5 100L153.5 97.5Z" fill="#342B37"/>
<path d="M150.118 97L150.191 96.5054L149.618 96.4207V97H150.118ZM153.5 97.5L153.765 97.076L153.676 97.0206L153.573 97.0054L153.5 97.5ZM157.5 100L157.934 99.7519L157.872 99.6427L157.765 99.576L157.5 100ZM159.5 103.5L159.989 103.395L159.973 103.319L159.934 103.252L159.5 103.5ZM164 122L164.441 122.235L164.542 122.046L164.474 121.842L164 122ZM160 129.5L159.56 129.737L160.002 130.559L160.441 129.735L160 129.5ZM157 110.5L157.5 110.52L157.51 110.25L157.291 110.093L157 110.5ZM153.5 108L153.791 107.593L153.773 107.581L153.755 107.57L153.5 108ZM150.118 105.998H149.618V106.283L149.863 106.428L150.118 105.998ZM156.5 123L156 122.98L155.995 123.117L156.06 123.237L156.5 123ZM162.5 117.5L162.011 117.605L162.017 117.632L162.026 117.658L162.5 117.5ZM150.045 97.4946L153.427 97.9946L153.573 97.0054L150.191 96.5054L150.045 97.4946ZM153.235 97.924L157.235 100.424L157.765 99.576L153.765 97.076L153.235 97.924ZM157.066 100.248L159.066 103.748L159.934 103.252L157.934 99.7519L157.066 100.248ZM163.559 121.765L159.559 129.265L160.441 129.735L164.441 122.235L163.559 121.765ZM157.291 110.093L153.791 107.593L153.209 108.407L156.709 110.907L157.291 110.093ZM153.755 107.57L150.372 105.567L149.863 106.428L153.245 108.43L153.755 107.57ZM150.618 105.998V97H149.618V105.998H150.618ZM160.44 129.263L156.94 122.763L156.06 123.237L159.56 129.737L160.44 129.263ZM157 123.02L157.5 110.52L156.5 110.48L156 122.98L157 123.02ZM159.011 103.605L162.011 117.605L162.989 117.395L159.989 103.395L159.011 103.605ZM162.026 117.658L163.526 122.158L164.474 121.842L162.974 117.342L162.026 117.658Z" fill="black"/>
<path d="M146.5 97.5L149.882 97V105.998L146.5 108L143 110.5L143.5 123L140 129.5L136 122L137.5 117.5L140.5 103.5L142.5 100L146.5 97.5Z" fill="#342B37"/>
<path d="M149.882 97L149.809 96.5054L150.382 96.4207V97H149.882ZM146.5 97.5L146.235 97.076L146.324 97.0206L146.427 97.0054L146.5 97.5ZM142.5 100L142.066 99.7519L142.128 99.6427L142.235 99.576L142.5 100ZM140.5 103.5L140.011 103.395L140.027 103.319L140.066 103.252L140.5 103.5ZM136 122L135.559 122.235L135.458 122.046L135.526 121.842L136 122ZM140 129.5L140.44 129.737L139.998 130.559L139.559 129.735L140 129.5ZM143 110.5L142.5 110.52L142.49 110.25L142.709 110.093L143 110.5ZM146.5 108L146.209 107.593L146.227 107.581L146.245 107.57L146.5 108ZM149.882 105.998H150.382V106.283L150.137 106.428L149.882 105.998ZM143.5 123L144 122.98L144.005 123.117L143.94 123.237L143.5 123ZM137.5 117.5L137.989 117.605L137.983 117.632L137.974 117.658L137.5 117.5ZM149.955 97.4946L146.573 97.9946L146.427 97.0054L149.809 96.5054L149.955 97.4946ZM146.765 97.924L142.765 100.424L142.235 99.576L146.235 97.076L146.765 97.924ZM142.934 100.248L140.934 103.748L140.066 103.252L142.066 99.7519L142.934 100.248ZM136.441 121.765L140.441 129.265L139.559 129.735L135.559 122.235L136.441 121.765ZM142.709 110.093L146.209 107.593L146.791 108.407L143.291 110.907L142.709 110.093ZM146.245 107.57L149.628 105.567L150.137 106.428L146.755 108.43L146.245 107.57ZM149.382 105.998V97H150.382V105.998H149.382ZM139.56 129.263L143.06 122.763L143.94 123.237L140.44 129.737L139.56 129.263ZM143 123.02L142.5 110.52L143.5 110.48L144 122.98L143 123.02ZM140.989 103.605L137.989 117.605L137.011 117.395L140.011 103.395L140.989 103.605ZM137.974 117.658L136.474 122.158L135.526 121.842L137.026 117.342L137.974 117.658Z" fill="black"/>
<path d="M152.177 109.458H155.177" stroke="black"/>
<path d="M144.529 109.458H148.941" stroke="black"/>
<path d="M148.059 116.38H152.471" stroke="black"/>
<defs>
<radialGradient id="paint0_radial" cx="0" cy="0" r="1" gradientUnits="userSpaceOnUse" gradientTransform="translate(163.75 170.35) rotate(-131.255) scale(82.2708)">
<stop stop-color="#FF4E4E"/>
<stop offset="1" stop-color="#FFA564"/>
</radialGradient>
</defs>
</svg>
