<svg width="300" height="300" viewBox="0 0 300 300" fill="none" xmlns="http://www.w3.org/2000/svg">
<path d="M135.199 208.785L153.5 222L150.209 211.251L133.334 199.751L111.94 195.715L109.943 201.47L109.401 205.7L113.18 202.42L125.5 203.889L135.199 208.785Z" fill="#1AA3B6"/>
<path d="M162.347 201.507L153.5 222L150.23 211.232L159.425 192.755L176.431 178.445L181.128 182.408L183.757 185.791L178.728 184.866L168.501 192.369L162.347 201.507Z" fill="#1AA3B6"/>
<path d="M153.397 221.201L132.98 145.108L128.807 129.553L125.018 130.567L116.161 134.063L108.811 137.832L103.081 142.294L98.1369 148.799L95.9807 155.008L95.229 164.672L94.6439 174.065L95.4042 185.802L95.9307 193.997L98.2995 202.826L104.027 197.463L109.653 195.282L120.366 196.921L130.804 200.211L139.972 207.671L153.397 221.201Z" fill="#2CC2E3"/>
<path d="M144.483 187.98L153.397 221.198L139.968 207.665L131.076 200.355L120.133 196.974L109.64 195.274L103.846 197.726L98.2829 202.82L95.857 193.779L97.7345 187.418L101.068 182.921L107.362 179.659L114.829 177.211L124.032 176.776L133.356 179.465L144.483 187.98Z" fill="#E9E46E" stroke="black"/>
<path d="M127.679 177.839L134.492 203.265" stroke="black"/>
<path d="M112.277 178.362L117.12 196.434" stroke="black"/>
<path d="M100.738 183.481L104.454 197.35" stroke="black"/>
<path d="M133.152 180.421L143.719 188.635L144.342 191.848L143.286 193.257L141.503 193.734L137.428 192.796L132.736 190.447L131.39 188.103L129.98 182.847L130.866 180.808L133.152 180.421Z" fill="#F8F5B3"/>
<path d="M119.418 178.247L124.942 178.347L127.009 178.921L127.573 181.024L127.635 183.036L126.133 184.564L123.736 185.431L121.004 185.937L117.823 185.661L115.421 184.726L114.3 183.223L113.792 181.33L114.289 179.619L115.458 178.63L119.418 178.247Z" fill="#F8F5B3"/>
<path d="M108.208 181.027L110.997 180.731L112.287 182.866L111.4 184.906L108.783 186.734L104.992 187.748L102.702 187.234L102.138 185.13L103.637 182.701L108.208 181.027Z" fill="#F8F5B3"/>
<path d="M99.2924 187.02L100.241 186.991L101.248 188.074L101.645 190.446L100.649 192.966L98.648 195.304L97.3668 195.872L96.8592 193.98L97.7427 191.039L99.2924 187.02Z" fill="#F8F5B3"/>
<path d="M143.046 209.308L151.66 218.267L147.484 201.812L146.875 203.101L144.2 203.817L140.852 202.911L135.036 197.258L133.188 194.824L135.331 202.811L139.466 205.76L143.046 209.308Z" fill="#A8B049"/>
<path d="M131.301 199.396L132.867 200.78L130.78 193.001L129.222 194.319L126.601 194.345L121.408 192.805L117.777 190.847L115.649 188.262L117.903 195.771L120.358 196.015L131.301 199.396Z" fill="#A8B049"/>
<path d="M109.415 194.445L115.946 195.628L113.915 188.058L112.472 190.697L110.242 191.294L105.78 191.587L103.152 189.811L104.958 196.539L109.415 194.445Z" fill="#A8B049"/>
<path d="M103.391 196.96L102.542 192.906L101.661 196.747L99.3782 198.034L97.5356 197.4L98.7202 201.815L103.391 196.96Z" fill="#A8B049"/>
<path d="M153.437 221.173L133.021 145.08L128.847 129.525L132.637 128.511L142.057 127.117L150.309 126.711L157.507 127.714L165.045 130.879L170.021 135.179L175.51 143.173L180.72 151.015L185.938 161.56L189.585 168.92L191.954 177.748L184.308 175.964L178.344 176.884L169.887 183.653L162.494 191.714L158.289 202.752L153.437 221.173Z" fill="#2CC2E3"/>
<path d="M144.509 187.955L153.423 221.173L158.277 202.748L162.317 191.978L170.101 183.586L178.337 176.875L184.583 176.106L191.951 177.74L189.525 168.699L184.714 164.128L179.575 161.897L172.492 162.215L164.798 163.823L156.611 168.042L149.882 175.025L144.509 187.955Z" fill="#E9E46E" stroke="black"/>
<path d="M154.002 170.785L160.815 196.212" stroke="black"/>
<path d="M167.602 163.538L172.444 181.61" stroke="black"/>
<path d="M180.155 162.201L183.871 176.07" stroke="black"/>
<path d="M150.549 175.761L145.511 188.15L146.58 191.244L148.199 191.937L149.983 191.46L153.042 188.614L155.93 184.236L155.922 181.534L154.511 176.279L152.722 174.955L150.549 175.761Z" fill="#F8F5B3"/>
<path d="M161.358 167.01L156.624 169.854L155.122 171.383L155.686 173.486L156.64 175.259L158.706 175.833L161.215 175.387L163.835 174.461L166.452 172.634L168.064 170.625L168.282 168.763L167.774 166.871L166.487 165.637L164.979 165.364L161.358 167.01Z" fill="#F8F5B3"/>
<path d="M172.457 163.81L169.893 164.947L169.845 167.439L171.635 168.764L174.816 169.04L178.607 168.025L180.332 166.436L179.768 164.333L177.253 162.978L172.457 163.81Z" fill="#F8F5B3"/>
<path d="M183.173 164.543L182.338 164.992L182.008 166.432L182.851 168.685L184.976 170.37L187.879 171.395L189.273 171.248L188.765 169.356L186.528 167.25L183.173 164.543Z" fill="#F8F5B3"/>
<path d="M156.43 205.721L153.455 217.782L148.834 201.446L150.007 202.259L152.682 201.543L155.128 199.086L157.335 191.286L157.716 188.256L159.859 196.243L157.754 200.861L156.43 205.721Z" fill="#A8B049"/>
<path d="M161.647 191.261L160.984 193.241L158.897 185.463L160.906 185.826L163.189 184.539L166.915 180.613L169.079 177.105L169.627 173.804L171.435 181.432L169.431 182.869L161.647 191.261Z" fill="#A8B049"/>
<path d="M178.124 176.035L173.06 180.32L171.029 172.75L173.6 174.316L175.83 173.719L179.84 171.745L181.227 168.895L183.032 175.623L178.124 176.035Z" fill="#A8B049"/>
<path d="M184.597 175.199L183.302 171.265L185.988 174.151L188.61 174.126L189.888 172.657L191.073 177.072L184.597 175.199Z" fill="#A8B049"/>
<path d="M133.501 178.498L143.997 186.995L148.5 176.992L125.595 175.522L107.363 188.394L106 191.008L110.501 187.506L116.502 183.504L125.003 177.5L133.501 178.498Z" fill="#1AA3B6"/>
<path d="M147.532 155.791L152.492 170.999L145.847 171.345L139.343 151.708L141.376 129.488L147.474 128.93L151.701 129.438L147.494 132.375L145.5 144.96L147.532 155.791Z" fill="#1AA3B6"/>
<path d="M156.377 177.428L88.189 138.068L74.2499 130.022L76.2144 126.621L81.8941 118.96L87.4455 112.826L93.2454 108.436L100.813 105.334L107.371 104.851L116.901 106.616L126.126 108.472L137.265 112.234L145.043 114.856L152.954 119.423L146.286 123.577L142.716 128.454L141.514 139.233L141.978 150.173L146.799 160.96L156.377 177.428Z" fill="#2CC2E3"/>
<path d="M126.621 160.251L156.38 177.428L146.803 160.963L142.055 150.486L141.634 139.038L142.72 128.461L146.593 123.493L152.957 119.43L144.859 114.756L138.228 114.93L133.02 116.992L128.235 122.234L123.93 128.819L121.119 137.601L121.291 147.304L126.621 160.251Z" fill="#E9E46E" stroke="black"/>
<path d="M121.193 141.371L143.99 154.533" stroke="black"/>
<path d="M125.685 126.63L141.887 135.984" stroke="black"/>
<path d="M133.616 116.808L146.051 123.987" stroke="black"/>
<path d="M122.277 147.33L127.462 159.66L130.403 161.091L132.038 160.434L132.963 158.833L133.116 154.654L132.067 149.513L130.153 147.608L125.445 144.89L123.244 145.221L122.277 147.33Z" fill="#F8F5B3"/>
<path d="M123.729 133.501L122.39 138.864L122.407 141.008L124.291 142.095L126.217 142.673L128.083 141.616L129.542 139.524L130.74 137.014L131.3 133.87L131.022 131.309L129.862 129.839L128.167 128.861L126.386 128.9L125.128 129.774L123.729 133.501Z" fill="#F8F5B3"/>
<path d="M129.314 123.392L128.304 126.01L130.029 127.806L132.229 127.475L134.672 125.418L136.636 122.017L136.734 119.673L134.851 118.586L132.116 119.408L129.314 123.392Z" fill="#F8F5B3"/>
<path d="M137.409 116.332L137.135 117.241L137.919 118.494L140.106 119.49L142.798 119.176L145.576 117.845L146.458 116.753L144.763 115.775L141.694 115.871L137.409 116.332Z" fill="#F8F5B3"/>
<path d="M147.612 164.357L154.026 174.996L139.217 166.715L140.621 166.459L142.008 164.057L142.003 160.586L138.056 153.504L136.185 151.09L143.343 155.222L145.116 159.981L147.612 164.357Z" fill="#A8B049"/>
<path d="M141.069 150.448L141.999 152.318L135.03 148.296L136.707 147.13L137.413 144.603L137.276 139.188L136.329 135.173L134.386 132.451L141.051 136.565L140.649 139.001L141.069 150.448Z" fill="#A8B049"/>
<path d="M141.96 128.025L141.404 134.64L134.624 130.727L137.548 130.013L138.703 128.013L140.145 123.777L139.113 120.78L145.14 124.259L141.96 128.025Z" fill="#A8B049"/>
<path d="M145.946 122.862L142.252 120.996L146.19 121.135L148.026 119.26L147.893 117.316L151.849 119.599L145.946 122.862Z" fill="#A8B049"/>
<path d="M156.394 177.408L88.206 138.048L74.267 130.002L72.3025 133.404L68.5065 142.152L65.9689 150.026L65.0665 157.242L66.1633 165.346L69.0235 171.266L75.3171 178.634L81.5378 185.693L90.3656 193.457L96.5262 198.881L104.438 203.447L104.702 195.596L107.141 190.067L115.878 183.637L125.586 178.568L137.341 177.349L156.394 177.408Z" fill="#2CC2E3"/>
<path d="M126.636 160.237L156.394 177.413L137.343 177.354L125.893 178.482L115.767 183.841L107.147 190.07L104.78 195.908L104.443 203.449L96.3444 198.775L93.1806 192.947L92.3624 187.406L94.5103 180.642L98.0621 173.622L104.263 166.798L112.755 162.095L126.636 160.237Z" fill="#E9E46E" stroke="black"/>
<path d="M107.567 164.972L130.364 178.134" stroke="black"/>
<path d="M97.0466 176.232L113.249 185.587" stroke="black"/>
<path d="M92.5065 188.012L104.941 195.191" stroke="black"/>
<path d="M113.269 162.932L126.542 161.256L129.252 163.087L129.5 164.831L128.576 166.432L125.032 168.655L120.054 170.317L117.447 169.613L112.739 166.895L111.925 164.824L113.269 162.932Z" fill="#F8F5B3"/>
<path d="M102.019 171.103L105.995 167.263L107.861 166.206L109.744 167.293L111.208 168.671L111.225 170.815L110.143 173.125L108.568 175.417L106.124 177.474L103.766 178.514L101.913 178.244L100.218 177.266L99.3621 175.705L99.4903 174.178L102.019 171.103Z" fill="#F8F5B3"/>
<path d="M96.0574 180.994L97.8203 178.811L100.238 179.407L101.052 181.477L100.491 184.621L98.5275 188.022L96.5462 189.279L94.663 188.192L94.0079 185.413L96.0574 180.994Z" fill="#F8F5B3"/>
<path d="M93.9907 191.535L94.6413 190.844L96.118 190.896L98.0744 192.292L99.1491 194.779L99.3849 197.85L98.8799 199.16L97.1847 198.181L95.7333 195.476L93.9907 191.535Z" fill="#F8F5B3"/>
<path d="M140.683 176.358L153.106 176.591L138.529 167.91L139.008 169.254L137.622 171.656L134.613 173.387L126.505 173.51L123.478 173.097L130.636 177.229L135.645 176.384L140.683 176.358Z" fill="#A8B049"/>
<path d="M125.368 177.646L127.453 177.515L120.484 173.493L120.313 175.528L118.477 177.403L113.717 179.991L109.767 181.179L106.436 180.858L113.333 184.571L115.241 183.005L125.368 177.646Z" fill="#A8B049"/>
<path d="M106.393 189.629L111.845 185.84L105.065 181.927L105.909 184.814L104.754 186.815L101.805 190.182L98.6935 190.786L104.72 194.265L106.393 189.629Z" fill="#A8B049"/>
<path d="M103.915 195.664L100.452 193.398L102.541 196.738L101.835 199.265L100.084 200.122L104.04 202.405L103.915 195.664Z" fill="#A8B049"/>
</svg>
