<svg width="40" height="41" viewBox="0 0 40 41" fill="none" xmlns="http://www.w3.org/2000/svg">
<g clip-path="url(#clip0)">
<path d="M40 20.4052C40 9.16544 31.0457 0.0538635 20 0.0538635L18.4362 20.4052L20 40.7564C31.0457 40.7564 40 31.6449 40 20.4052Z" fill="#E1EBF0"/>
<path d="M20 0.0538635C8.9543 0.0538635 0 9.16544 0 20.4052C0 31.6449 8.9543 40.7564 20 40.7564V0.0538635Z" fill="#FFF5F5"/>
<path d="M37.6563 20.4052C37.6563 15.6061 35.8197 11.0944 32.4849 7.70102C29.15 4.3076 24.7162 2.43878 20 2.43878L18.4362 20.4052L20 38.3715C24.7162 38.3715 29.15 36.5027 32.4849 33.1093C35.8197 29.7159 37.6563 25.2042 37.6563 20.4052Z" fill="#B4D2D7"/>
<path d="M20 2.43878C15.2838 2.43878 10.85 4.3076 7.51516 7.70102C4.18031 11.0944 2.34375 15.6061 2.34375 20.4052C2.34375 25.2042 4.18031 29.7159 7.51516 33.1093C10.85 36.5027 15.2838 38.3715 20 38.3715V2.43878Z" fill="#E1EBF0"/>
<path d="M15.432 5.84406C10.8174 7.34647 7.16673 11.0613 5.69025 15.757L16.9958 17.3482L15.432 5.84406Z" fill="#FFF5F5"/>
<path d="M34.3098 15.757C32.8333 11.0613 29.1826 7.34647 24.568 5.84406L23.0042 17.3482L34.3098 15.757Z" fill="#E1EBF0"/>
<path d="M24.568 34.9662C29.1826 33.4638 32.8333 29.749 34.3098 25.0533L23.0042 23.4621L24.568 34.9662Z" fill="#E1EBF0"/>
<path d="M5.69025 25.0533C7.16673 29.749 10.8174 33.4638 15.432 34.9662L16.9958 23.4621L5.69025 25.0533Z" fill="#FFF5F5"/>
<path d="M34.3098 15.757H24.568V5.84405C23.1269 5.37486 21.5922 5.12054 20 5.12054L18.4362 20.4052L20 35.6898C21.5922 35.6898 23.1268 35.4355 24.568 34.9663V25.0534H34.3098C34.7709 23.5869 35.0208 22.0252 35.0208 20.4052C35.0208 18.7851 34.7709 17.2234 34.3098 15.757Z" fill="#06E091"/>
<path d="M20 5.12054C18.4078 5.12054 16.8731 5.37486 15.432 5.84405V15.757H5.69023C5.22914 17.2234 4.97922 18.7851 4.97922 20.4052C4.97922 22.0252 5.22914 23.5869 5.69023 25.0534H15.432V34.9663C16.8731 35.4355 18.4078 35.6898 20 35.6898V5.12054Z" fill="#0EF433"/>
</g>
<defs>
<clipPath id="clip0">
<rect width="40" height="40.7026" fill="white" transform="translate(0 0.0538635)"/>
</clipPath>
</defs>
</svg>
