<svg width="40" height="41" viewBox="0 0 40 41" fill="none" xmlns="http://www.w3.org/2000/svg">
<g clip-path="url(#clip0)">
<path d="M17.4598 40.9166C27.1026 40.9166 34.9196 32.9623 34.9196 23.1501C34.9196 13.338 27.1026 5.38365 17.4598 5.38365C7.81702 5.38365 0 13.338 0 23.1501C0 32.9623 7.81702 40.9166 17.4598 40.9166Z" fill="#4B47FE"/>
<path d="M34.9196 23.1501C34.9196 32.962 27.1023 40.9166 17.4598 40.9166C12.2275 40.9166 7.53196 38.5741 4.33261 34.8628C7.40586 37.6076 11.4337 39.2716 15.8432 39.2716C25.4857 39.2716 33.303 31.3169 33.303 21.5051C33.303 17.0182 31.6677 12.9196 28.9703 9.79236C32.6175 13.0479 34.9196 17.8259 34.9196 23.1501Z" fill="#391EDE"/>
<path d="M17.4598 36.5572C24.7365 36.5572 30.6355 30.5547 30.6355 23.1501C30.6355 15.7456 24.7365 9.74301 17.4598 9.74301C10.1831 9.74301 4.28412 15.7456 4.28412 23.1501C4.28412 30.5547 10.1831 36.5572 17.4598 36.5572Z" fill="#F5F5F5"/>
<path d="M30.6355 23.1501C30.6355 30.5545 24.7363 36.5572 17.4598 36.5572C13.4101 36.5572 9.78717 34.6975 7.36948 31.7726C9.66027 33.7319 12.6163 34.9122 15.8431 34.9122C23.1197 34.9122 29.0188 28.9094 29.0188 21.5051C29.0188 18.2216 27.8589 15.2136 25.9334 12.8826C28.8078 15.3427 30.6355 19.0293 30.6355 23.1501Z" fill="#E6E6E6"/>
<path d="M17.4598 32.1979C22.3705 32.1979 26.3514 28.147 26.3514 23.1501C26.3514 18.1532 22.3705 14.1024 17.4598 14.1024C12.5491 14.1024 8.56824 18.1532 8.56824 23.1501C8.56824 28.147 12.5491 32.1979 17.4598 32.1979Z" fill="#4B47FE"/>
<path d="M26.3513 23.1501C26.3513 28.1469 22.3704 32.1979 17.4598 32.1979C14.5927 32.1979 12.0416 30.8168 10.416 28.6725C11.9171 29.852 13.7997 30.5528 15.8431 30.5528C20.7537 30.5528 24.7347 26.5019 24.7347 21.5051C24.7347 19.4257 24.046 17.5101 22.8869 15.9827C24.9942 17.6368 26.3513 20.2326 26.3513 23.1501Z" fill="#391EDE"/>
<path d="M17.4598 27.7563C19.9598 27.7563 21.9864 25.694 21.9864 23.1501C21.9864 20.6062 19.9598 18.544 17.4598 18.544C14.9598 18.544 12.9332 20.6062 12.9332 23.1501C12.9332 25.694 14.9598 27.7563 17.4598 27.7563Z" fill="#F5F5F5"/>
<path d="M33.9795 28.9152C33.6352 29.9367 33.2027 30.9156 32.6902 31.8425L28.7925 29.9927C29.3268 29.0797 29.7568 28.0959 30.0664 27.0587L33.9795 28.9152Z" fill="#391EDE"/>
<path d="M30.0664 27.0587C29.7568 28.0959 29.3268 29.0797 28.7925 29.9927L24.8794 28.1363C25.4566 27.2504 25.8834 26.256 26.1242 25.1883L30.0664 27.0587Z" fill="#E6E6E6"/>
<path d="M26.1242 25.1883C25.8834 26.256 25.4566 27.2504 24.8794 28.1362L20.8362 26.2181C21.5362 25.4203 21.9678 24.3732 21.9856 23.2241L26.1242 25.1883Z" fill="#391EDE"/>
<path d="M21.9856 23.2241C21.9678 24.3732 21.5362 25.4203 20.8362 26.2181L17.0492 24.4209C16.3087 24.0705 15.9628 23.2085 16.2271 22.4403C16.2449 22.3901 16.2643 22.3399 16.2869 22.2898C16.4712 21.8884 16.797 21.6013 17.1769 21.4607C17.5552 21.3208 17.9876 21.3266 18.3813 21.5141L21.9856 23.2241Z" fill="#E6E6E6"/>
<path d="M39.8648 7.63424C39.9943 7.6562 40.0454 7.81782 39.9527 7.91258L38.2426 9.66077L37.1934 10.7333L34.3264 13.6633C34.1422 13.8516 33.8799 13.9377 33.6222 13.8945L29.3461 13.1779L32.5486 9.94536L33.61 8.87444L35.5621 6.90367L39.8648 7.63424Z" fill="#9643FF"/>
<path d="M38.2426 9.66076L37.1934 10.7333L32.5488 9.94536L33.6101 8.87444L38.2426 9.66076Z" fill="#6E0CD0"/>
<path d="M33.5155 5.00444L31.5731 6.93819L30.5167 7.99019L27.3254 11.1676L26.6127 6.76068C26.5704 6.49929 26.6545 6.2332 26.8385 6.04583L29.7172 3.11346L30.7705 2.04007L32.513 0.265476C32.6064 0.170393 32.7663 0.223199 32.7871 0.355872L33.5155 5.00444Z" fill="#9643FF"/>
<path d="M31.5731 6.93822L30.5167 7.99022L29.7172 3.11349L30.7705 2.0401L31.5731 6.93822Z" fill="#6E0CD0"/>
<path d="M37.2104 4.73879C37.2104 5.14841 37.0568 5.55967 36.7488 5.87223L18.8291 24.1067C18.252 24.6948 17.3378 24.731 16.7186 24.2153C16.6782 24.1816 16.6386 24.1454 16.6006 24.1067C16.2926 23.7933 16.139 23.3837 16.139 22.9725C16.139 22.5628 16.2926 22.1516 16.6006 21.839L34.5203 3.60453C35.1354 2.97777 36.1337 2.97777 36.7488 3.60453C36.7868 3.64319 36.8224 3.68349 36.8555 3.72462C37.0924 4.01908 37.2104 4.37853 37.2104 4.73879Z" fill="#918291"/>
<path d="M37.2104 4.73879C37.2104 5.14841 37.0568 5.55967 36.7488 5.87223L18.8291 24.1067C18.252 24.6948 17.3377 24.731 16.7186 24.2153L36.8555 3.72462C37.0924 4.01909 37.2104 4.37853 37.2104 4.73879Z" fill="#7A6E79"/>
</g>
<defs>
<clipPath id="clip0">
<rect width="40" height="40.7026" fill="white" transform="translate(0 0.215485)"/>
</clipPath>
</defs>
</svg>
